<svg width="31" height="31" viewBox="0 0 31 31" fill="none" xmlns="http://www.w3.org/2000/svg">
<path d="M15.5 30C13.5958 30 11.7103 29.6249 9.95109 28.8963C8.19187 28.1676 6.5934 27.0995 5.24695 25.753C3.9005 24.4066 2.83244 22.8081 2.10375 21.0489C1.37505 19.2897 1 17.4042 1 15.5C1 13.5958 1.37505 11.7103 2.10375 9.95109C2.83244 8.19187 3.9005 6.5934 5.24695 5.24695C6.5934 3.9005 8.19187 2.83244 9.95109 2.10375C11.7103 1.37505 13.5958 1 15.5 1C17.4042 1 19.2897 1.37505 21.0489 2.10375C22.8081 2.83244 24.4066 3.9005 25.7531 5.24695C27.0995 6.5934 28.1676 8.19187 28.8963 9.95109C29.6249 11.7103 30 13.5958 30 15.5C30 17.4042 29.6249 19.2897 28.8963 21.0489C28.1676 22.8081 27.0995 24.4066 25.753 25.7531C24.4066 27.0995 22.8081 28.1676 21.0489 28.8963C19.2897 29.6249 17.4042 30 15.5 30L15.5 30Z" stroke="white" stroke-width="2" stroke-linecap="round"/>
<path d="M10.6665 10.6667L20.3332 20.3334" stroke="white" stroke-width="2" stroke-linecap="round"/>
<path d="M20.333 10.6667L10.6663 20.3334" stroke="white" stroke-width="2" stroke-linecap="round"/>
</svg>
