<svg width="84" height="102" viewBox="0 0 84 102" fill="none" xmlns="http://www.w3.org/2000/svg">
<path d="M42 100.859C35.0176 86.6641 24.7393 74.2166 16.1455 65.2695C11.7534 60.6969 7.79693 57.0328 4.93749 54.5117C3.50779 53.2512 2.35176 52.2758 1.55273 51.6152C1.24847 51.3637 0.995096 51.1587 0.798823 51C0.995097 50.8412 1.24847 50.6363 1.55273 50.3848C2.35176 49.7241 3.50779 48.7488 4.9375 47.4883C7.79693 44.9672 11.7534 41.3031 16.1455 36.7305C24.7395 27.7832 35.0176 15.3352 42 1.13963C48.9824 15.3352 59.2606 27.7832 67.8545 36.7305C72.2466 41.3031 76.2031 44.9672 79.0625 47.4883C80.4922 48.7488 81.6482 49.7241 82.4473 50.3848C82.7518 50.6366 83.0058 50.8412 83.2022 51C83.0056 51.1588 82.7512 51.3634 82.4463 51.6152C81.6463 52.2759 80.4888 53.2511 79.0576 54.5117C76.1954 57.0328 72.2352 60.6968 67.8408 65.2695C59.2429 74.2165 48.9659 86.6643 42 100.859Z" fill="#434343" stroke="#010101"/>
</svg>
