<svg width="356" height="356" viewBox="0 0 356 356" fill="none" xmlns="http://www.w3.org/2000/svg">
<path d="M178 356C276.307 356 356 276.307 356 178C356 79.6933 276.307 0 178 0C79.6933 0 0 79.6933 0 178C0 276.307 79.6933 356 178 356Z" fill="#1A1817"/>
<path d="M278.325 247.61H77.9082V104.676H278.325V247.61ZM89.0332 236.485H267.2V115.801H89.0332V236.485Z" fill="white"/>
<path d="M178.133 194.61L80.5332 134.023L86.4072 124.567L178.111 181.504L269.803 124.133L275.71 133.567L178.133 194.61Z" fill="white"/>
<path d="M268.822 245.427L277.57 238.555L218.637 163.526L209.889 170.398L268.822 245.427Z" fill="white"/>
<path d="M87.6587 245.429L146.529 170.348L137.776 163.484L78.905 238.565L87.6587 245.429Z" fill="white"/>
</svg>
