<svg width="800" height="800" viewBox="0 0 800 800" fill="none" xmlns="http://www.w3.org/2000/svg">
<g clip-path="url(#clip0_3904_9)">
<path d="M399.999 0C620.897 0 800 179.1 800 400.001C800 620.903 620.9 800 400.001 800C179.103 800 0 620.9 0 400.001C0 179.103 179.075 0 399.999 0Z" fill="#1A1817"/>
<path d="M538.05 174.951H261.927C213.952 174.951 174.951 213.976 174.951 261.927V538.077C174.951 586.052 213.976 625.053 261.927 625.053H538.077C586.052 625.053 625.053 586.028 625.053 538.077V261.927C625.05 213.976 586.025 174.951 538.05 174.951ZM565.451 225.277L575.301 225.252V299.952L500.052 300.202L499.802 225.502L565.451 225.277ZM400.002 324.7C462.427 324.7 475.301 383.3 475.301 400.024C475.301 441.499 441.502 475.298 400.002 475.298C358.478 475.298 324.703 441.499 324.703 400.024C324.676 383.3 337.577 324.7 400.002 324.7ZM575.727 532.626C575.727 556.402 556.402 575.752 532.577 575.752H266.576C242.775 575.752 223.426 556.427 223.426 532.626V349.902H285.925C280.125 364.176 276.849 383.676 276.849 400.027C276.849 467.878 332.049 523.103 399.925 523.103C467.801 523.103 522.974 467.878 522.974 400.027C522.974 383.676 519.698 364.176 513.923 349.902H575.672V532.626H575.727Z" fill="white"/>
</g>
<defs>
<clipPath id="clip0_3904_9">
<rect width="800" height="800" fill="white"/>
</clipPath>
</defs>
</svg>
