<svg width="924" height="937" viewBox="0 0 924 937" fill="none" xmlns="http://www.w3.org/2000/svg">
<g filter="url(#filter0_d_3915_1292)">
<path d="M168.887 474.319L72.4739 539.424L185.659 566.319L113.908 658.829L229.451 648.783L189.395 759.568L295.965 713.596L291.523 831.83L378.683 754.399L410.287 868.524L469.537 767.217L534.079 866.063L559.588 750.801L650.762 824.685L640.06 706.749L748.951 748.44L703.073 639.38L819.009 644.788L742.437 555.265L854.079 523.895L754.317 462.68L850.717 397.578L737.545 370.681L809.288 278.2L693.758 288.244L733.814 177.459L627.247 223.445L631.686 105.197L544.515 182.645L512.931 68.4727L453.697 169.791L389.153 70.9317L363.647 186.208L272.429 112.317L283.133 230.267L174.254 188.559L220.134 297.633L104.195 292.211L180.768 381.734L69.112 413.107L168.887 474.319Z" fill="#434343"/>
<path d="M168.887 474.319L72.4739 539.424L185.659 566.319L113.908 658.829L229.451 648.783L189.395 759.568L295.965 713.596L291.523 831.83L378.683 754.399L410.287 868.524L469.537 767.217L534.079 866.063L559.588 750.801L650.762 824.685L640.06 706.749L748.951 748.44L703.073 639.38L819.009 644.788L742.437 555.265L854.079 523.895L754.317 462.68L850.717 397.578L737.545 370.681L809.288 278.2L693.758 288.244L733.814 177.459L627.247 223.445L631.686 105.197L544.515 182.645L512.931 68.4727L453.697 169.791L389.153 70.9317L363.647 186.208L272.429 112.317L283.133 230.267L174.254 188.559L220.134 297.633L104.195 292.211L180.768 381.734L69.112 413.107L168.887 474.319Z" stroke="#010101" stroke-width="2" stroke-miterlimit="10"/>
</g>
<path d="M203.408 434.961L109 475.519L203.408 516.078L126.146 583.859L228.482 593.262L175.95 681.568L276.171 658.917L253.506 759.121L341.805 706.604L351.22 808.91L418.981 731.676L459.542 826.067L500.102 731.676L567.851 808.91L577.265 706.604L665.577 759.121L642.912 658.917L743.134 681.568L690.602 593.262L792.925 583.859L715.675 516.102L810.071 475.544L715.675 434.985L792.925 367.228L690.602 357.826L743.134 269.519L642.912 292.183L665.577 191.967L577.265 244.496L567.875 142.154L500.127 219.399L459.566 124.996L419.006 219.399L351.22 142.154L341.805 244.471L253.506 191.942L276.171 292.158L175.95 269.495L228.482 357.801L126.146 367.204L203.408 434.961Z" fill="#434343" stroke="#010101" stroke-width="5" stroke-miterlimit="10"/>
<path d="M309.206 388.91C308.917 389.304 308.727 389.739 308.703 390.208L309.368 390.242L308.702 390.208V390.221C308.689 390.628 308.896 390.945 309.142 391.162C309.279 391.284 309.443 391.387 309.622 391.478L301.197 388.693C302.076 388.887 303.059 388.908 304.14 388.771L304.707 388.688C306.235 388.427 307.695 387.958 309.086 387.28L309.085 387.279C310.153 386.761 311.026 386.188 311.668 385.544L309.206 388.91ZM288.67 370.104C288.396 371.932 288.413 373.708 288.73 375.427V375.428C289.101 377.466 289.75 379.318 290.68 380.97V380.971C291.475 382.388 292.359 383.619 293.332 384.659L293.755 385.094H293.756C294.84 386.16 295.924 386.917 297.011 387.31L285.598 383.538L288.67 370.104ZM281.087 329.937C280.61 330.923 280.563 331.987 280.946 333.088V333.089C281.357 334.278 282.002 335.24 282.89 335.946L283.07 336.084L302.064 349.967L302.604 350.361L302.997 349.821L308.047 342.894C311.171 345.264 313.64 347.889 315.467 350.77L315.844 351.382C317.688 354.484 318.918 357.657 319.541 360.898L319.657 361.548L319.658 361.549C320.208 364.804 320.198 367.917 319.634 370.889L319.514 371.481C318.874 374.446 317.788 377.031 316.264 379.251L315.953 379.688L314.14 382.166C315.238 380.342 315.916 378.345 316.166 376.18L316.219 375.651C316.437 373.008 316.134 370.284 315.322 367.485L315.153 366.925V366.924C314.215 363.938 312.82 361.01 310.966 358.14C309.11 355.267 306.899 352.65 304.334 350.288L303.785 349.782L303.345 350.385L298.526 356.97L278.496 342.33L278.31 342.199C277.429 341.611 276.398 341.294 275.246 341.226L274.997 341.215H274.727C273.683 341.245 272.783 341.611 272.057 342.303L281.087 329.937Z" fill="#010101" stroke="#010101" stroke-width="1.33333"/>
<path d="M320.439 334.882L330.236 345.954L330.525 346.28L330.94 346.146L345.18 341.536L344.706 349.24L327.646 354.729L303.338 327.257L304.01 316.317L320.439 334.882ZM329.165 326.283L321.254 333.271L319.646 328.399L327.557 321.391L329.165 326.283ZM316.951 309.639L304.169 313.737L304.643 306.031L317.426 301.933L316.951 309.639Z" fill="#010101" stroke="#010101" stroke-width="1.33333"/>
<path d="M351.269 284.732L333.71 290.755L332.926 291.024L333.356 291.732L343.104 307.74L343.281 308.032L343.621 308.059L350.657 308.608L351.22 308.652L351.355 308.104L353.956 297.63L365.225 298.497L378.592 320.453L371.839 330.155L352.18 337.151L350.574 331.077L370.809 324.094L371.591 323.824L371.16 323.117L360.838 306.172L360.661 305.881L360.321 305.854L353.186 305.292L352.622 305.248L352.486 305.797L349.896 316.271L338.729 315.427L325.924 294.409L332.701 284.693L349.673 278.648L351.269 284.732Z" fill="#010101" stroke="#010101" stroke-width="1.33333"/>
<path d="M394.895 264.547L384.196 267.404L383.497 267.591L383.74 268.272L397.761 307.61L397.876 307.933L398.203 308.027L404.222 309.771L400.866 316.812L391.903 314.25L377.168 272.901L381.229 269.563L380.632 268.404L364.294 272.837L367.455 266.149L398.064 257.872L394.895 264.547Z" fill="#010101" stroke="#010101" stroke-width="1.33333"/>
<path d="M422.602 283.445L424.764 298.065L424.827 298.497L425.248 298.611L439.701 302.529L435.105 308.727L417.82 304.012L412.451 267.714L418.964 258.933L422.602 283.445ZM434.601 280.989L424.162 282.539L425.468 277.569L435.926 276.021L434.601 280.989ZM438.052 254.18L433.455 260.39L420.503 256.855L425.1 250.657L438.052 254.18Z" fill="#010101" stroke="#010101" stroke-width="1.33333"/>
<path d="M463.704 253.762L463.5 257.106L463.416 258.49L464.55 257.692L475.591 249.918L486.349 266.561L479.456 269.595C477.207 270.579 474.958 271.563 472.709 272.544L471.42 273.105L472.671 273.748L485.842 280.509L484.757 298.695L484.736 299.036L485.001 299.252L489.854 303.204L484.016 308.382L476.772 302.507L477.827 284.892L477.854 284.455L477.465 284.258L463.256 277.022L462.526 276.65L463.339 276.287L478.222 269.614L478.93 269.297L478.51 268.645L470.024 255.486L469.649 254.904L469.082 255.301L463.634 259.112L463.369 259.298L463.351 259.619L462.4 275.64L462.335 276.737L462.339 276.735L462.288 277.576L461.101 297.282L461.08 297.624L461.346 297.84L466.198 301.793L460.371 306.971L453.116 301.094L455.722 257.562L455.741 257.222L455.478 257.006L450.635 253.051L456.461 247.874L463.704 253.762Z" fill="#010101" stroke="#010101" stroke-width="1.33333"/>
<path d="M525.854 315.999L519.13 318.145L512.706 309.614L519.422 307.469L525.854 315.999ZM560.803 277.822L556.828 282.693L544.069 274.611L543.823 274.456L543.542 274.53L542.218 274.88L541.788 274.994L541.728 275.435L539.565 291.205L539.496 291.715L539.971 291.911L546.795 294.735L543.124 298.309L539.655 296.877L538.87 296.553L538.742 297.393L536.417 312.629L527.771 315.388L530.976 293.83L531.053 293.315L530.571 293.116L524.746 290.703L528.417 287.13L530.974 288.188L531.771 288.517L531.889 287.663L533.392 276.819L541.773 274.391L543.191 273.979L541.946 273.188L529.49 265.264L536.425 262.377L560.803 277.822Z" fill="#010101" stroke="#010101" stroke-width="1.33333"/>
<path d="M562.606 309.59L554.533 321.974L554.295 322.339L554.535 322.704L562.758 335.221L555.2 336.812L545.402 321.825L565.434 291.092L576.146 288.832L562.606 309.59ZM577.507 312.882L573.221 315.717L564.378 309.949L568.653 307.114L577.507 312.882ZM593.587 297.954L586.028 299.535L578.677 288.299L586.236 286.707L593.587 297.954Z" fill="#010101" stroke="#010101" stroke-width="1.33333"/>
<path d="M614.251 308.097L624.585 322.86L619.162 326.009L608.689 310.688L608.222 310.004L607.654 310.607L594.808 324.253L594.574 324.502L594.639 324.837L595.976 331.76L596.083 332.313L596.647 332.3L607.429 332.025L609.581 343.121L591.968 361.838L580.808 357.904L568.85 340.816L574.286 337.645L586.383 355.303L586.851 355.986L587.419 355.383L601.015 340.938L601.248 340.689L601.184 340.354L599.834 333.332L599.728 332.777L599.163 332.791L588.379 333.053L586.229 322.08L603.091 304.152L614.251 308.097Z" fill="#010101" stroke="#010101" stroke-width="1.33333"/>
<path d="M641.356 336.689L657.472 364.005L650.179 362.713L644.587 353.169L644.222 352.545L643.629 352.96L609.427 376.916L609.146 377.111L609.143 377.453L609.064 383.716L601.372 382.363L601.475 373.037L637.425 347.848L641.729 350.877L642.686 349.992L634.062 335.417L641.356 336.689Z" fill="#010101" stroke="#010101" stroke-width="1.33333"/>
<path d="M264.078 505.073C268.398 504.148 272.455 504.142 276.265 505.046L277.022 505.239H277.023C280.801 506.26 284.021 508.056 286.7 510.633L287.229 511.159C290.005 514.007 291.876 517.624 292.828 522.039V522.04C293.083 523.251 293.167 524.516 293.078 525.838L293.029 526.408V526.41C293.013 526.57 292.995 526.73 292.978 526.888C293.052 525.617 292.955 524.241 292.688 522.767L292.559 522.104L292.558 522.099L292.466 521.716C291.975 519.812 290.956 518.093 289.429 516.56H289.43C287.918 515.038 286.083 513.761 283.935 512.719L283.5 512.513H283.499C281.157 511.438 278.621 510.743 275.901 510.42H275.902C273.35 510.113 270.813 510.203 268.3 510.689L267.798 510.792C265.261 511.334 262.798 512.184 260.416 513.338L259.94 513.572L259.939 513.573C257.563 514.773 255.452 516.257 253.61 518.025L253.245 518.383L253.244 518.385C251.427 520.214 250.077 522.309 249.195 524.662L249.025 525.136L249.024 525.138C248.201 527.557 248.061 530.178 248.579 532.987L248.691 533.552V533.553C249.063 535.279 249.808 536.951 250.913 538.565L251.139 538.887V538.888C252.216 540.386 253.508 541.756 255.014 543L255.672 543.525C257.368 544.834 259.226 545.847 261.248 546.564L261.654 546.704C261.975 546.811 262.298 546.905 262.622 546.992C261.069 546.777 259.57 546.434 258.126 545.961L257.49 545.743H257.489C254.107 544.54 251.318 542.789 249.098 540.496C247.025 538.356 245.629 535.829 244.907 532.902L244.771 532.312V532.31L244.606 531.485C243.846 527.381 244.074 523.581 245.274 520.07L245.275 520.071C246.564 516.326 248.8 513.151 252 510.536L252.001 510.537C255.004 508.097 258.721 506.336 263.177 505.275L264.077 505.073H264.078ZM292.752 528.571C292.63 529.349 292.486 530.101 292.318 530.826L292.316 530.833L292.315 530.84C292.219 531.302 292.152 531.705 292.117 532.046L292.116 532.053V532.061C292.089 532.399 292.088 532.717 292.137 532.991L292.139 533.003L292.141 533.014C292.202 533.301 292.348 533.739 292.772 533.939C292.818 533.961 292.863 533.977 292.908 533.99L287.428 537.123C287.898 536.745 288.365 536.342 288.824 535.912C289.849 534.957 290.696 533.806 291.372 532.471L291.651 531.888V531.886C292.164 530.743 292.532 529.636 292.752 528.571Z" fill="#010101" stroke="#010101" stroke-width="1.33333"/>
<path d="M298.53 543.185L302.721 566.531L270.447 580.815L270.134 580.953L270.064 581.288L269.024 586.268L263.161 584.005L264.714 576.533L285.438 567.356L286.307 567.347L286.168 567.033L296.204 562.59L296.684 562.378L296.591 561.861L295.166 553.989L295.107 553.669L294.82 553.518L289.834 550.894L289.549 550.743L289.254 550.874L275.471 556.972L262.449 562.732L262.137 562.871L262.066 563.206L261.027 568.186L255.163 565.923L256.716 558.452L282.851 546.887L293.825 552.636L295.027 553.266L294.791 551.93L292.859 540.996L298.53 543.185ZM284.268 566.035L280.232 566.081L276.759 558.236L280.794 558.19L284.268 566.035Z" fill="#010101" stroke="#010101" stroke-width="1.33333"/>
<path d="M309.696 570.234L309.954 577.873L308.84 578.727L307.736 579.571L309.085 579.903L319.241 582.402L323.964 592.043L320.897 594.397L319.798 595.242L321.145 595.574L331.289 598.073L336.01 607.714L305.265 631.35L304.994 631.558L305.005 631.898L305.156 636.989L298.933 636.177L298.675 628.562L328.695 605.478L329.126 605.146L328.889 604.658L325.265 597.185L325.129 596.905L324.827 596.829L319.791 595.567L319.479 595.488L319.223 595.686L308.501 603.933L307.973 604.339L308.379 604.867L311.511 608.949L307.595 609.942L305.438 607.13L305.031 606.601L304.502 607.007L293.218 615.68L292.948 615.887L292.958 616.228L293.109 621.318L286.885 620.505L286.617 612.89L300.691 602.065L301.219 601.66L300.814 601.132L297.63 596.974L301.547 595.98L303.754 598.868L304.16 599.399L304.69 598.991L316.637 589.807L317.066 589.477L316.83 588.988L313.219 581.516L313.083 581.234L312.78 581.159L307.731 579.896L307.419 579.818L307.164 580.015L281.159 600.009L280.888 600.218L280.899 600.559L281.062 605.648L274.827 604.835L274.569 597.221L303.365 575.073L303.637 574.865L303.625 574.523L303.462 569.433L309.696 570.234Z" fill="#010101" stroke="#010101" stroke-width="1.33333"/>
<path d="M357.455 628.688L335.366 656.209L335.152 656.476L335.243 656.804L336.597 661.723L330.351 662.412L328.284 655.052L342.471 637.379L343.239 636.971L342.972 636.756L349.839 628.202L350.167 627.794L349.848 627.379L344.975 621.031L344.775 620.771L344.448 620.771L338.812 620.745L338.491 620.744L338.29 620.994L328.855 632.741L319.945 643.838L319.731 644.104L319.822 644.433L321.177 649.35L314.932 650.029L312.877 642.668L330.769 620.393L343.168 620.441L344.524 620.447L343.7 619.37L336.959 610.562L342.996 609.906L357.455 628.688ZM340.828 636.744L337.272 638.637L330.581 633.271L334.147 631.379L340.828 636.744Z" fill="#010101" stroke="#010101" stroke-width="1.33333"/>
<path d="M375.522 638.258L370.553 638.831L370.214 638.87L370.048 639.168L354.177 667.472L353.928 667.918L354.293 668.274L363.854 677.616L357.985 679.272L343.103 664.703L349.328 662.954L349.595 662.879L349.729 662.638L366.311 633.062L373.814 632.221L375.522 638.258Z" fill="#010101" stroke="#010101" stroke-width="1.33333"/>
<path d="M382.068 665.81L377.606 677.319L377.449 677.727L377.759 678.033L386.512 686.705L380.849 689.212L370.347 678.756L381.373 650.342L389.446 646.789L382.068 665.81ZM394.702 665.995L391.867 668.895L383.875 665.796L386.719 662.906L394.702 665.995ZM405.27 650.976L399.594 653.473L391.812 645.746L397.487 643.238L405.27 650.976Z" fill="#010101" stroke="#010101" stroke-width="1.33333"/>
<path d="M432.455 658.438L425.056 692.94L424.983 693.275L425.214 693.528L428.646 697.308L423.357 700.734L418.232 695.085L422.979 672.925L423.488 672.209L423.147 672.136L425.447 661.404L425.557 660.892L425.084 660.664L417.886 657.202L417.594 657.062L417.303 657.205L412.242 659.691L411.952 659.834L411.884 660.15L408.723 674.883L405.736 688.792L405.664 689.125L405.893 689.378L409.316 693.17L404.038 696.587L398.901 690.936L404.885 662.993L415.994 657.476L417.208 656.872L415.989 656.279L406.019 651.423L411.121 648.131L432.455 658.438ZM421.228 673.088L418.882 676.391L410.505 674.584L412.85 671.293L421.228 673.088ZM422.312 639.341C422.74 639.307 423.117 639.323 423.448 639.38L423.45 639.382C423.488 639.44 423.534 639.518 423.586 639.617L423.763 639.983C423.897 640.28 424.033 640.597 424.172 640.933L424.599 641.999C424.743 642.375 424.876 642.731 425 643.064L425.341 644.005C425.444 644.301 425.523 644.523 425.575 644.671C425.602 644.745 425.621 644.801 425.635 644.839C425.641 644.858 425.646 644.872 425.649 644.882C425.651 644.886 425.652 644.89 425.653 644.893C425.654 644.894 425.654 644.895 425.654 644.896H425.655V644.896L425.668 644.933C425.256 644.973 424.881 644.959 424.539 644.897L424.405 644.663L424.228 644.295V644.294L424.023 643.835C423.955 643.678 423.886 643.515 423.816 643.349L423.393 642.292L423.392 642.291L422.984 641.223L422.636 640.271C422.532 639.974 422.455 639.751 422.403 639.603C422.377 639.528 422.359 639.472 422.346 639.435C422.339 639.416 422.334 639.402 422.331 639.393C422.33 639.388 422.328 639.385 422.327 639.383C422.327 639.382 422.326 639.38 422.326 639.38V639.379L422.312 639.341Z" fill="#010101" stroke="#010101" stroke-width="1.33333"/>
<path d="M441.61 692.777L441.59 693.214L441.982 693.405L453.052 698.836L448.473 703.028L435.201 696.463L436.581 666.021L443.086 660.071L441.61 692.777ZM462.858 660.696L461.479 691.139L454.961 697.09L456.438 664.383L456.458 663.947L456.065 663.755L444.997 658.324L449.574 654.143L462.858 660.696Z" fill="#010101" stroke="#010101" stroke-width="1.33333"/>
<path d="M490.618 690.761L490.698 691.19L491.124 691.288L503.129 694.055L499.628 699.171L485.213 695.812L479.77 666.532L484.764 659.252L490.618 690.761ZM500.418 654.489L496.916 659.595L486.228 657.119L489.74 652.002L500.418 654.489Z" fill="#010101" stroke="#010101" stroke-width="1.33333"/>
<path d="M529.433 643.898L541.875 678.018L541.992 678.337L542.318 678.431L547.216 679.827L544.56 685.529L537.213 683.475L536.73 682.147L536.256 680.843L535.534 682.028L530.098 690.959L519.484 692.556L506.201 656.117L506.084 655.796L505.755 655.704L500.85 654.328L503.504 648.628L510.852 650.673L523.818 686.253L524.004 686.763L524.541 686.684L532.751 685.484L533.06 685.439L533.223 685.174L535.947 680.737L536.115 680.463L536.005 680.16L524.771 649.344L524.653 649.023L524.325 648.931L519.43 647.555L522.074 641.855L529.433 643.898Z" fill="#010101" stroke="#010101" stroke-width="1.33333"/>
<path d="M547.047 634.23L544.984 638.789L544.844 639.101L545.015 639.396L561.197 667.526L561.451 667.969L561.945 667.838L574.875 664.421L573.278 670.32L553.146 675.639L554.833 669.379L554.905 669.112L554.768 668.873L537.859 639.478L540.979 632.605L547.047 634.23Z" fill="#010101" stroke="#010101" stroke-width="1.33333"/>
<path d="M577.075 613.961L569.519 619.173L568.923 619.583L569.381 620.143L591.425 647.123L591.641 647.388L591.981 647.366L597.07 647.052L596.433 653.306L588.828 653.786L565.735 625.535L567.944 621.851L566.992 620.961L555.597 628.881L556.184 623.042L577.672 608.124L577.075 613.961Z" fill="#010101" stroke="#010101" stroke-width="1.33333"/>
<path d="M623.274 607.158L622.398 631.418L622.33 633.32L623.57 631.877L634.444 619.217L634.152 628.035L622.352 641.777L621.705 641.763L622.169 628.642L622.22 627.219L621.095 628.091L614.076 633.53L585.186 608.718L584.927 608.495L584.595 608.576L579.633 609.777L579.16 603.514L586.589 601.704L614.783 625.925L615.196 626.28L615.627 625.945L622.225 620.809L622.471 620.617L622.481 620.306L622.656 615.17L622.668 614.85L622.425 614.642L598.069 593.723L597.811 593.5L597.478 593.58L592.517 594.781L592.044 588.518L599.472 586.708L623.274 607.158Z" fill="#010101" stroke="#010101" stroke-width="1.33333"/>
<path d="M622.196 572.13L622.195 572.131C622.089 574.18 621.983 576.227 621.883 578.269L621.814 579.663L622.942 578.839L632.864 571.585L645.958 579.165L646.253 579.336L646.564 579.197L651.209 577.118L652.813 583.187L645.867 586.324L633.181 578.974L632.803 578.755L632.451 579.014L621.729 586.911L621.368 587.176L621.391 586.664L621.966 573.081L621.998 572.307L621.228 572.39L608.27 573.789L607.581 573.863L607.681 574.549L608.48 580.021L608.527 580.341L608.807 580.502L620.391 587.213L620.91 587.514L620.909 587.516L621.79 588.025L636.049 596.272L636.344 596.443L636.655 596.305L641.301 594.225L642.916 600.294L635.958 603.432L604.526 585.234L604.23 585.062L603.919 585.203L599.273 587.293L597.658 581.224L604.604 578.075L606.981 579.452L608.179 580.146L607.976 578.777L606.34 567.778L622.518 565.991L622.196 572.13Z" fill="#010101" stroke="#010101" stroke-width="1.33333"/>
<path d="M659.83 543.3L660.153 543.412L660.434 543.215L664.602 540.28L667.338 545.938L661.094 550.35L639.692 542.897L639.046 542.306L638.932 542.633L628.578 539.028L628.083 538.856L627.799 539.297L623.463 546.007L623.286 546.28L623.393 546.587L625.242 551.923L625.348 552.229L625.652 552.334L639.886 557.296H639.887L653.332 561.97L653.655 562.081L653.936 561.885L658.104 558.949L660.84 564.607L654.596 569.02L627.606 559.616L623.502 547.91L623.053 546.63L622.313 547.768L616.271 557.072L613.626 551.602L626.496 531.7L659.83 543.3ZM642.618 547.389L639.809 555.486L636.83 552.747L639.64 544.658L642.618 547.389Z" fill="#010101" stroke="#010101" stroke-width="1.33333"/>
<path d="M673.979 514.251L665.241 533.172L661.496 527.878L661.336 527.652L661.064 527.605L627.64 521.884L624.346 515.096L629.466 511.466L631.647 515.958L631.798 516.266L632.135 516.323L664.126 521.797L664.629 521.883L664.844 521.42L670.446 509.29L673.979 514.251Z" fill="#010101" stroke="#010101" stroke-width="1.33333"/>
<path d="M264.513 440.095V440.096C265.265 440.171 265.996 439.988 266.697 439.586L266.696 439.585C266.903 439.467 267.086 439.332 267.246 439.18L266.664 445.295C266.621 445.232 266.577 445.168 266.528 445.106L266.324 444.871L266.32 444.867L266.111 444.664C265.686 444.277 265.215 444.004 264.695 443.896L264.432 443.854H264.43L241.465 441.681H241.466C241.021 441.635 240.591 441.687 240.202 441.869L240.038 441.955L240.03 441.96C239.656 442.184 239.409 442.514 239.296 442.914L236.205 437.416L264.513 440.095Z" fill="#010101" stroke="#010101" stroke-width="1.33333"/>
<path d="M657.552 434.044C657.424 433.964 657.286 433.9 657.142 433.85L657.001 433.806L656.996 433.804L656.856 433.771C656.253 433.644 655.673 433.753 655.146 434.063L654.906 434.221L654.896 434.229L651.227 437C650.693 437.397 650.215 437.925 649.793 438.57L649.615 438.854L649.612 438.859C649.5 439.05 649.405 439.244 649.324 439.438L648.108 433.508C648.282 433.614 648.472 433.694 648.675 433.745V433.744C649.326 433.912 649.953 433.816 650.523 433.483L650.765 433.326L650.778 433.316L655.015 430.093L655.014 430.092C655.567 429.702 656.013 429.21 656.334 428.618L656.333 428.617C656.359 428.57 656.383 428.521 656.406 428.474L657.552 434.044ZM678.485 424.294C678.59 425.438 678.492 426.443 678.21 427.319L678.129 427.556L678.128 427.558C677.689 428.755 677.009 429.73 676.085 430.496L675.897 430.646L675.896 430.647C674.984 431.356 673.959 431.863 672.816 432.166L672.319 432.283C670.94 432.568 669.505 432.557 668.011 432.242L667.711 432.175C666.139 431.801 664.718 431.086 663.445 430.029L661.263 427.759C662.008 428.207 662.781 428.593 663.583 428.917V428.918C665.752 429.794 668.209 429.971 670.93 429.494L671.477 429.391L671.481 429.39C672.515 429.171 673.544 428.789 674.568 428.256L675.008 428.019C676.211 427.34 677.181 426.47 677.912 425.406L677.914 425.407C678.16 425.055 678.348 424.682 678.485 424.294ZM644.67 416.738C644.845 416.871 645.042 416.983 645.26 417.076V417.077C645.904 417.358 646.557 417.473 647.203 417.4L647.479 417.357L647.483 417.356L649.946 416.854L653.017 420.058L648.241 421.036C647.594 421.165 647.02 421.48 646.517 421.945L646.305 422.154L646.302 422.158C646.139 422.332 646.003 422.516 645.895 422.709L644.67 416.738ZM676.687 413.295C676.673 413.317 676.66 413.339 676.647 413.363H676.648C676.501 413.644 676.468 413.949 676.505 414.242L676.524 414.368L676.526 414.375L676.729 415.368C676.563 415.15 676.383 414.943 676.188 414.748L676.005 414.574L676.002 414.571L675.646 414.264C675.012 413.736 674.344 413.306 673.645 412.972L676.687 413.295Z" fill="#010101" stroke="#010101" stroke-width="1.33333"/>
<path d="M648.929 460.302C649.098 460.656 649.312 460.989 649.575 461.297L649.748 461.488C650.652 462.438 651.806 463.118 653.184 463.54V463.539C654.553 463.963 655.97 464.129 657.43 464.043L657.429 464.042C658.897 463.963 660.239 463.632 661.446 463.038L661.445 463.037C661.885 462.824 662.283 462.576 662.639 462.294L660.341 467.588C659.614 467.846 658.779 467.984 657.828 467.984C656.762 467.984 655.686 467.823 654.594 467.499H654.593C653.647 467.215 652.771 466.824 651.959 466.321L651.615 466.099L651.614 466.098L651.291 465.868C650.56 465.316 649.977 464.65 649.536 463.873H649.535C649.05 463.015 648.828 462.011 648.896 460.843L648.929 460.302ZM680.418 464.575C680.394 464.915 680.447 465.282 680.674 465.588L680.683 465.599L680.69 465.609C680.695 465.615 680.7 465.619 680.704 465.624L677.717 466.38C678.497 465.867 679.213 465.221 679.86 464.44L679.859 464.439C680.096 464.155 680.302 463.854 680.479 463.536L680.418 464.575ZM669.691 450.579C669.794 450.713 669.911 450.84 670.044 450.958L670.172 451.065L670.175 451.067C670.807 451.565 671.506 451.852 672.259 451.896V451.896L678.515 452.271V452.271C679.177 452.316 679.816 452.164 680.423 451.847L680.681 451.7C680.881 451.578 681.058 451.439 681.212 451.285L680.85 457.344C680.715 457.172 680.556 457.012 680.371 456.867H680.37C679.825 456.435 679.229 456.155 678.585 456.058L678.305 456.026H678.3L669.403 455.49L669.691 450.579ZM652.251 448.165C651.592 448.597 650.981 449.121 650.417 449.736L650.107 450.09L650.104 450.093C649.867 450.38 649.66 450.685 649.483 451.007L649.546 449.972L649.545 449.971C649.569 449.655 649.525 449.332 649.362 449.042L649.354 449.027L649.345 449.014L649.275 448.918L652.251 448.165Z" fill="#010101" stroke="#010101" stroke-width="1.33333"/>
<mask id="path-32-inside-1_3915_1292" fill="white">
<path d="M421.834 353.773C421.208 353.887 419.16 354.342 417.282 354.684C402.43 357.529 387.123 370.73 379.384 387.232C376.937 392.581 374.206 400.548 373.125 405.555C372.442 408.912 372.328 409.083 370.45 409.425C368.06 409.766 364.931 412.099 363.793 414.318C362.825 416.253 362.655 420.35 363.565 422.683C364.988 426.439 368.573 428.715 372.954 428.658C381.945 428.601 385.928 418.131 379.327 411.871C376.653 409.311 376.653 409.481 381.148 403.507C386.383 396.451 393.894 389.508 398.959 386.891C404.82 383.932 410.909 383.363 414.892 385.354C419.729 387.858 426.102 395.995 426.102 399.637C426.102 400.491 425.476 399.751 424.338 397.418C423.37 395.369 421.663 393.036 420.298 391.898L417.965 389.907L413.754 392.809C411.478 394.402 408.291 397.133 406.698 398.841C401.861 404.133 400.78 406.01 395.203 418.301C390.366 429.113 389.001 431.332 383.595 437.762C375.23 447.777 372.157 453.581 371.588 460.524C371.361 463.653 371.588 465.076 372.613 467.921C373.296 469.913 374.377 472.189 374.946 473.042C376.994 475.944 378.872 480.611 378.872 482.944C378.872 485.163 378.758 485.333 377.108 485.675C376.084 485.846 374.434 486.927 373.409 488.065C371.702 489.829 371.475 490.455 371.475 493.015C371.475 496.657 372.84 499.104 375.629 500.413C384.221 504.51 391.561 493.3 384.278 487.325C382.4 485.789 382.343 485.561 382.855 483.74C383.709 480.838 383.538 474.067 382.571 470.88C381.376 467.011 381.49 461.776 382.798 458.873C383.424 457.565 384.904 455.402 386.156 454.037C387.351 452.671 388.546 450.964 388.773 450.167C388.944 449.371 390.48 447.72 392.074 446.469L395.033 444.192L393.553 446.867C392.7 448.403 392.187 449.598 392.358 449.598C392.586 449.598 394.122 448.517 395.772 447.208C400.268 443.794 403.739 439.469 405.389 435.316C408.12 428.26 407.95 428.487 408.689 431.105L409.315 433.324L413.298 428.26C418.306 421.716 418.306 421.659 417.566 423.707C417.225 424.618 416.883 427.918 416.826 431.105C416.713 435.316 416.371 437.421 415.575 439.071C413.64 443.168 410.055 448.062 405.218 453.126C399.585 459.158 398.219 461.548 398.219 465.759C398.219 468.376 398.447 469.059 399.926 470.652C403.113 474.067 401.804 480.326 397.366 482.431C395.772 483.171 395.146 483.228 393.951 482.716C392.301 481.976 392.187 482.147 393.439 484.025C395.374 486.927 401.235 487.211 404.422 484.537C405.787 483.399 406.129 483.342 406.413 484.025C407.21 486.244 404.706 492.105 401.463 495.576C399.528 497.568 395.658 499.673 393.894 499.673C393.325 499.673 392.074 499.275 391.163 498.82C389.001 497.681 388.944 497.738 389.911 499.559C391.106 501.835 392.472 502.86 395.488 503.599C399.642 504.567 406.299 502.803 409.77 499.787C411.079 498.649 411.591 499.218 410.738 500.925C408.291 505.648 401.747 509.119 399.414 506.9C398.788 506.331 398.788 506.445 399.3 507.526C400.552 509.916 402.43 510.655 406.755 510.371C410.112 510.2 411.079 509.859 413.355 508.322L415.973 506.445L414.778 508.152C412.16 511.85 409.827 513.102 395.089 518.736C380.693 524.255 374.547 529.32 373.409 536.717C373.182 537.969 372.783 539.107 372.556 539.278C371.702 539.79 371.987 542.806 372.954 543.716C373.409 544.228 374.434 544.627 375.116 544.627C377.62 544.627 379.27 541.269 377.62 539.619C376.539 538.538 380.238 535.181 384.164 533.587C386.497 532.677 387.977 531.539 389.513 529.661C391.163 527.613 391.732 527.214 391.903 527.954C392.017 528.523 392.358 529.32 392.643 529.661C393.041 530.173 392.984 530.799 392.358 531.767C391.448 533.132 391.505 533.189 393.212 533.758C394.691 534.27 395.431 534.156 398.447 532.734C400.325 531.823 402.828 530.856 403.909 530.685C405.844 530.344 405.787 530.344 402.771 532.392C398.447 535.295 396.797 536.945 394.008 541.212C391.163 545.48 388.887 551 388.09 555.324L387.578 558.34L391.106 554.926C393.382 552.707 396.228 550.772 398.959 549.463C401.804 548.041 403.397 546.903 403.853 545.935C404.877 543.659 405.161 544.74 404.535 548.382C404.194 550.26 403.625 553.56 403.284 555.837C402.714 559.535 402.544 559.934 401.121 560.446C398.276 561.413 397.081 563.291 397.081 566.478C397.138 572.282 402.601 575.127 407.096 571.656C410.055 569.38 410.34 564.998 407.665 562.096L406.413 560.73L410.567 556.235L414.721 551.74L417.111 553.105C418.477 553.845 420.753 555.495 422.289 556.747C424.395 558.454 425.134 558.852 425.76 558.34C426.841 557.43 428.378 558.17 428.378 559.592C428.378 560.218 429.288 561.527 430.369 562.494L432.304 564.258L432.418 570.575L432.589 576.948L430.882 578.37C428.719 580.248 428.549 584.004 430.597 585.654C432.361 587.133 435.434 587.076 436.856 585.54C438.848 583.378 438.848 580.988 436.8 578.143C436.287 577.346 436.856 576.322 440.214 571.883C445.335 565.169 448.635 561.413 447.668 563.405C447.27 564.201 446.245 565.795 445.335 566.933C444.425 568.128 443.799 569.323 444.026 569.664C444.197 569.949 445.563 570.916 447.042 571.77C455.236 576.492 464.568 583.264 470.372 588.727C473.844 592.027 476.802 594.531 476.973 594.246C477.258 593.791 480.729 582.24 480.729 581.728C480.729 581.614 481.867 582.41 483.233 583.548C484.598 584.687 486.021 585.597 486.419 585.597C487.899 585.597 498.198 597.888 499.564 601.416C499.848 602.099 500.304 602.668 500.645 602.668C501.442 602.668 506.335 592.312 508.27 586.678C511.684 576.436 511.684 568.867 508.327 560.673C507.189 557.942 506.108 555.324 505.937 554.926C505.709 554.357 506.221 554.528 507.303 555.324C508.27 556.007 509.18 556.576 509.351 556.576C509.806 556.576 518.285 565.339 518.285 565.795C518.285 566.079 518.569 566.25 518.854 566.25C520.163 566.25 518.968 559.08 516.805 553.731C514.928 548.951 511.229 543.375 507.246 539.05C505.254 536.888 505.482 536.831 509.92 538.424C512.708 539.392 513.391 539.505 513.79 538.879C514.188 538.253 514.472 538.367 515.155 539.335C515.667 540.074 516.578 540.643 517.204 540.643C519.366 540.643 522.951 542.123 525.512 544.058C529.04 546.732 529.609 547.699 528.357 549.065C526.991 550.545 527.105 553.504 528.471 554.3C531.942 556.121 535.128 552.65 532.852 549.463C532.454 548.838 531.885 547.529 531.714 546.504C530.405 540.53 524.203 533.075 517.83 529.889C511.798 526.873 508.839 526.133 496.946 524.654C491.142 523.971 483.062 521.638 478.453 519.362C476.347 518.337 475.835 517.711 475.437 515.947C474.811 513.33 475.038 513.045 477.144 514.07C477.997 514.525 480.956 515.492 483.745 516.175C488.126 517.313 488.98 517.427 491.142 516.744C496.15 515.265 498.369 512.363 498.369 507.355C498.369 504.055 498.938 502.973 501.499 501.437C503.035 500.527 503.49 499.901 503.49 498.592C503.49 497.226 503.888 496.714 505.652 495.861C507.53 494.95 507.758 494.609 507.929 492.276C508.042 490.91 508.384 489.431 508.668 489.089C508.953 488.691 511.001 488.292 513.164 488.179C520.049 487.78 521.927 485.163 519.139 479.814C518.285 478.221 517.375 476.058 517.09 475.034C516.862 474.067 516.123 471.221 515.44 468.832C514.302 464.735 514.302 464.336 515.155 463.027C515.667 462.231 516.919 461.434 517.887 461.207C520.277 460.694 520.846 460.353 519.992 459.841C519.423 459.499 519.537 458.987 520.447 457.735C521.13 456.768 522.211 453.98 522.837 451.533C525.227 442.372 525.227 442.315 525.739 443.908C525.967 444.705 526.138 447.948 526.195 451.192C526.251 457.394 526.991 460.182 529.267 462.572C530.917 464.393 533.251 465.531 535.128 465.531H536.665L534.787 464.222C533.706 463.54 532.283 461.832 531.487 460.41C530.235 458.02 530.178 457.508 530.576 453.012C532.112 437.535 529.836 428.146 522.61 420.122C520.846 418.188 519.423 416.139 519.423 415.684C519.423 414.091 515.497 407.262 512.822 404.246L510.262 401.287L511.001 398.897C511.4 397.532 512.652 395.483 513.79 394.288C515.554 392.41 516.18 392.126 518.342 392.126C525.227 392.126 533.364 400.149 540.42 414.034C543.038 419.155 543.209 420.179 541.672 421.26C536.779 424.675 537.234 433.836 542.469 437.08C550.663 442.144 560.45 433.779 556.752 424.959C555.841 422.626 552.825 420.065 550.606 419.61C548.785 419.269 547.875 417.96 547.875 415.798C547.875 412.213 544.631 398.841 542.412 393.264C541.046 389.793 537.291 382.68 535.185 379.664C532.625 375.965 526.991 370.446 522.894 367.714C510.546 359.35 497.117 358.61 483.062 365.495C478.339 367.828 469.917 373.12 469.917 373.746C469.917 373.974 470.885 375.396 472.08 376.99C474.413 380.119 476.746 383.818 476.746 384.33C476.746 384.501 475.551 383.363 474.071 381.713C462.577 369.194 453.814 361.683 446.189 357.756C440.612 354.968 436.401 353.944 429.516 353.716C425.931 353.602 422.46 353.602 421.834 353.773ZM520.049 431.389C519.139 435.885 517.545 438.9 513.847 442.713L510.831 445.9L513.505 442.201C516.692 437.705 518.683 433.438 519.708 428.885C520.39 425.756 520.732 427.975 520.049 431.389ZM504.97 434.974C502.807 439.356 498.483 443.51 494.101 445.615C493.191 446.07 492.223 446.525 491.996 446.639C490.744 447.208 491.882 446.184 494.272 444.477C498.312 441.632 502.011 437.421 504.173 433.324C505.539 430.593 506.108 429.967 506.221 430.877C506.335 431.503 505.766 433.381 504.97 434.974ZM490.061 431.503C488.923 433.552 487.387 435.429 487.159 435.145C486.988 435.031 487.557 433.95 488.411 432.869C489.947 430.877 490.858 430.08 490.061 431.503ZM478.566 436.738C476.746 440.835 471.397 447.891 470.088 447.891C469.746 447.891 470.259 447.265 472.819 444.363C473.331 443.794 474.982 441.177 476.518 438.559C478.054 435.941 479.42 433.836 479.477 433.95C479.591 434.064 479.192 435.316 478.566 436.738ZM433.215 442.315C432.702 444.648 430.597 448.859 429.061 450.566C427.183 452.785 427.24 451.988 429.231 448.688C430.313 446.924 431.621 444.363 432.19 442.997C433.385 440.039 433.727 439.811 433.215 442.315ZM462.292 445.046C460.813 446.639 458.821 449.541 457.968 451.476C456.147 455.402 455.805 455.232 457.114 450.964C458.024 447.948 460.187 445.046 462.861 443.282C465.308 441.689 465.251 441.916 462.292 445.046ZM437.198 449.712C432.702 454.72 428.378 462.8 428.378 466.214C428.378 466.783 428.15 467.238 427.809 467.238C427.24 467.238 427.41 465.702 428.492 460.808C429.288 457.109 432.987 451.704 436.856 448.688C438.62 447.322 440.157 446.184 440.214 446.184C440.328 446.184 438.962 447.777 437.198 449.712ZM408.006 460.524C406.413 462.458 404.478 465.417 403.796 467.068C403.056 468.718 402.316 470.083 402.089 470.083C401.292 470.083 401.576 464.962 402.43 463.369C403.853 460.694 409.827 455.915 410.681 456.768C410.795 456.882 409.6 458.532 408.006 460.524ZM474.754 465.929C474.583 467.011 474.242 467.807 474.071 467.637C473.9 467.466 473.957 466.214 474.185 464.848C474.469 463.483 474.754 462.743 474.868 463.141C475.038 463.54 474.982 464.791 474.754 465.929ZM483.176 463.312C483.859 463.71 486.135 465.588 488.24 467.58C490.573 469.856 492.679 471.392 493.76 471.563C495.694 471.961 495.865 472.303 494.841 473.441C494.158 474.124 495.41 473.611 502.978 470.14C506.278 468.661 509.18 468.376 509.749 469.514C510.034 469.97 511.058 472.416 512.026 474.92C513.05 477.424 514.131 480.212 514.472 481.066C515.326 483.114 514.302 483.854 511.457 483.342C510.375 483.171 507.929 482.944 506.051 482.944C503.092 482.887 502.58 482.716 502.011 481.578C501.442 480.44 501.328 480.383 500.986 481.18C500.304 483 500.645 484.821 501.954 485.846C502.75 486.472 503.206 487.553 503.263 488.691C503.319 490.398 503.206 490.512 500.759 490.853C495.808 491.593 490.402 490.17 487.045 487.211C484.541 484.992 482.493 486.87 484.314 489.658C485.395 491.251 492.849 495.747 495.239 496.259C496.548 496.487 497.003 496.942 497.117 498.137C497.288 499.616 497.174 499.673 494.556 499.787C493.077 499.787 491.484 499.844 491.142 499.844C490.175 499.787 490.232 500.527 491.199 501.38C491.654 501.722 492.451 503.258 492.963 504.794C493.76 507.241 493.76 507.753 493.02 509.574C491.54 513.045 487.899 513.557 482.72 510.94C479.022 509.005 472.649 504.567 469.177 501.38C466.048 498.535 465.991 498.421 466.731 496.885C467.926 494.609 469.348 488.748 469.348 486.073C469.348 483.057 470.714 480.383 474.697 475.831C477.087 473.099 478.396 470.88 479.705 467.409C480.672 464.791 481.582 462.686 481.696 462.686C481.867 462.686 482.493 462.971 483.176 463.312ZM418.42 469.742C417.908 470.88 417.282 473.953 416.997 476.513C416.485 480.611 414.892 486.415 414.437 485.903C414.152 485.618 415.29 475.034 415.859 472.929C416.485 470.766 418.59 466.954 419.046 467.352C419.16 467.523 418.875 468.604 418.42 469.742ZM442.547 479.757C442.604 484.139 440.1 490.569 436.8 494.267C435.092 496.259 430.597 499.673 429.744 499.673C429.516 499.673 430.938 498.023 432.873 495.974C437.084 491.65 439.815 486.073 440.897 479.757C441.636 475.375 442.49 475.375 442.547 479.757ZM461.894 488.008C461.951 493.015 461.097 493.812 459.959 489.772C458.992 486.472 459.106 484.025 460.357 480.952C460.983 479.529 461.04 479.529 461.439 482.033C461.666 483.456 461.894 486.13 461.894 488.008ZM446.871 506.217C446.416 507.583 445.449 509.119 444.766 509.688L443.571 510.769L444.481 509.005C445.79 506.501 447.099 502.461 447.27 500.811C447.327 500.015 447.44 500.356 447.554 501.608C447.725 502.86 447.384 504.908 446.871 506.217ZM457.398 530.059C457.854 530.23 457.171 530.287 455.919 530.116C453.188 529.775 449.66 528.068 446.985 525.735C445.449 524.369 445.961 524.54 450.855 526.93C453.984 528.409 456.943 529.832 457.398 530.059ZM429.231 537.115C427.98 538.253 426.045 539.904 424.964 540.757C423.882 541.611 422.005 543.147 420.81 544.115L418.647 545.935L418.989 544.285C419.216 543.375 419.785 541.497 420.298 540.131C421.037 538.026 421.265 537.798 421.834 538.538C422.403 539.335 422.972 539.221 426.728 537.229C429.061 535.977 431.052 534.953 431.223 534.953C431.394 534.953 430.483 535.92 429.231 537.115ZM493.475 542.407C494.329 543.659 494.955 545.253 494.841 545.935C494.613 547.244 494.158 546.448 492.223 541.611C491.313 539.448 491.711 539.676 493.475 542.407ZM437.824 547.187C437.312 548.325 437.084 549.52 437.255 549.805C437.425 550.089 436.8 551.227 435.832 552.366L434.068 554.357L434.41 552.024C434.694 550.26 434.58 549.463 434.011 549.065C433.328 548.61 433.328 548.496 434.068 548.212C434.523 547.984 435.718 547.074 436.629 546.106C438.677 544.001 439.019 544.342 437.824 547.187ZM459.049 549.748C460.642 552.252 461.894 555.552 461.552 556.292C461.325 556.975 460.642 556.519 458.65 554.3L456.09 551.398L454.781 552.65C453.017 554.3 453.074 553.504 454.838 549.52C455.634 547.756 456.26 545.879 456.26 545.309C456.26 544.797 456.773 545.366 457.398 546.618C458.024 547.87 458.764 549.293 459.049 549.748ZM486.021 552.593C487.273 554.016 489.606 556.519 491.199 558.227C494.898 562.096 493.987 561.584 487.728 556.235C483.119 552.309 482.72 552.081 482.322 553.219C482.095 553.845 482.038 554.642 482.208 554.926C482.379 555.211 482.322 556.576 482.095 557.885C481.753 560.104 481.696 560.161 481.184 558.852C480.9 558.056 480.558 554.869 480.387 551.74L480.046 546.049L481.924 548.041C482.891 549.122 484.769 551.171 486.021 552.593ZM473.388 571.2C474.299 574.046 473.673 574.046 472.08 571.257C471.34 569.892 470.202 568.014 469.633 567.103L468.552 565.396L470.657 567.331C471.795 568.412 473.047 570.176 473.388 571.2ZM495.979 572.623C496.776 573.42 496.889 575.867 496.15 577.005C495.751 577.687 495.41 577.403 494.613 575.81C493.304 572.964 494.215 570.859 495.979 572.623Z"/>
</mask>
<path d="M421.834 353.773C421.208 353.887 419.16 354.342 417.282 354.684C402.43 357.529 387.123 370.73 379.384 387.232C376.937 392.581 374.206 400.548 373.125 405.555C372.442 408.912 372.328 409.083 370.45 409.425C368.06 409.766 364.931 412.099 363.793 414.318C362.825 416.253 362.655 420.35 363.565 422.683C364.988 426.439 368.573 428.715 372.954 428.658C381.945 428.601 385.928 418.131 379.327 411.871C376.653 409.311 376.653 409.481 381.148 403.507C386.383 396.451 393.894 389.508 398.959 386.891C404.82 383.932 410.909 383.363 414.892 385.354C419.729 387.858 426.102 395.995 426.102 399.637C426.102 400.491 425.476 399.751 424.338 397.418C423.37 395.369 421.663 393.036 420.298 391.898L417.965 389.907L413.754 392.809C411.478 394.402 408.291 397.133 406.698 398.841C401.861 404.133 400.78 406.01 395.203 418.301C390.366 429.113 389.001 431.332 383.595 437.762C375.23 447.777 372.157 453.581 371.588 460.524C371.361 463.653 371.588 465.076 372.613 467.921C373.296 469.913 374.377 472.189 374.946 473.042C376.994 475.944 378.872 480.611 378.872 482.944C378.872 485.163 378.758 485.333 377.108 485.675C376.084 485.846 374.434 486.927 373.409 488.065C371.702 489.829 371.475 490.455 371.475 493.015C371.475 496.657 372.84 499.104 375.629 500.413C384.221 504.51 391.561 493.3 384.278 487.325C382.4 485.789 382.343 485.561 382.855 483.74C383.709 480.838 383.538 474.067 382.571 470.88C381.376 467.011 381.49 461.776 382.798 458.873C383.424 457.565 384.904 455.402 386.156 454.037C387.351 452.671 388.546 450.964 388.773 450.167C388.944 449.371 390.48 447.72 392.074 446.469L395.033 444.192L393.553 446.867C392.7 448.403 392.187 449.598 392.358 449.598C392.586 449.598 394.122 448.517 395.772 447.208C400.268 443.794 403.739 439.469 405.389 435.316C408.12 428.26 407.95 428.487 408.689 431.105L409.315 433.324L413.298 428.26C418.306 421.716 418.306 421.659 417.566 423.707C417.225 424.618 416.883 427.918 416.826 431.105C416.713 435.316 416.371 437.421 415.575 439.071C413.64 443.168 410.055 448.062 405.218 453.126C399.585 459.158 398.219 461.548 398.219 465.759C398.219 468.376 398.447 469.059 399.926 470.652C403.113 474.067 401.804 480.326 397.366 482.431C395.772 483.171 395.146 483.228 393.951 482.716C392.301 481.976 392.187 482.147 393.439 484.025C395.374 486.927 401.235 487.211 404.422 484.537C405.787 483.399 406.129 483.342 406.413 484.025C407.21 486.244 404.706 492.105 401.463 495.576C399.528 497.568 395.658 499.673 393.894 499.673C393.325 499.673 392.074 499.275 391.163 498.82C389.001 497.681 388.944 497.738 389.911 499.559C391.106 501.835 392.472 502.86 395.488 503.599C399.642 504.567 406.299 502.803 409.77 499.787C411.079 498.649 411.591 499.218 410.738 500.925C408.291 505.648 401.747 509.119 399.414 506.9C398.788 506.331 398.788 506.445 399.3 507.526C400.552 509.916 402.43 510.655 406.755 510.371C410.112 510.2 411.079 509.859 413.355 508.322L415.973 506.445L414.778 508.152C412.16 511.85 409.827 513.102 395.089 518.736C380.693 524.255 374.547 529.32 373.409 536.717C373.182 537.969 372.783 539.107 372.556 539.278C371.702 539.79 371.987 542.806 372.954 543.716C373.409 544.228 374.434 544.627 375.116 544.627C377.62 544.627 379.27 541.269 377.62 539.619C376.539 538.538 380.238 535.181 384.164 533.587C386.497 532.677 387.977 531.539 389.513 529.661C391.163 527.613 391.732 527.214 391.903 527.954C392.017 528.523 392.358 529.32 392.643 529.661C393.041 530.173 392.984 530.799 392.358 531.767C391.448 533.132 391.505 533.189 393.212 533.758C394.691 534.27 395.431 534.156 398.447 532.734C400.325 531.823 402.828 530.856 403.909 530.685C405.844 530.344 405.787 530.344 402.771 532.392C398.447 535.295 396.797 536.945 394.008 541.212C391.163 545.48 388.887 551 388.09 555.324L387.578 558.34L391.106 554.926C393.382 552.707 396.228 550.772 398.959 549.463C401.804 548.041 403.397 546.903 403.853 545.935C404.877 543.659 405.161 544.74 404.535 548.382C404.194 550.26 403.625 553.56 403.284 555.837C402.714 559.535 402.544 559.934 401.121 560.446C398.276 561.413 397.081 563.291 397.081 566.478C397.138 572.282 402.601 575.127 407.096 571.656C410.055 569.38 410.34 564.998 407.665 562.096L406.413 560.73L410.567 556.235L414.721 551.74L417.111 553.105C418.477 553.845 420.753 555.495 422.289 556.747C424.395 558.454 425.134 558.852 425.76 558.34C426.841 557.43 428.378 558.17 428.378 559.592C428.378 560.218 429.288 561.527 430.369 562.494L432.304 564.258L432.418 570.575L432.589 576.948L430.882 578.37C428.719 580.248 428.549 584.004 430.597 585.654C432.361 587.133 435.434 587.076 436.856 585.54C438.848 583.378 438.848 580.988 436.8 578.143C436.287 577.346 436.856 576.322 440.214 571.883C445.335 565.169 448.635 561.413 447.668 563.405C447.27 564.201 446.245 565.795 445.335 566.933C444.425 568.128 443.799 569.323 444.026 569.664C444.197 569.949 445.563 570.916 447.042 571.77C455.236 576.492 464.568 583.264 470.372 588.727C473.844 592.027 476.802 594.531 476.973 594.246C477.258 593.791 480.729 582.24 480.729 581.728C480.729 581.614 481.867 582.41 483.233 583.548C484.598 584.687 486.021 585.597 486.419 585.597C487.899 585.597 498.198 597.888 499.564 601.416C499.848 602.099 500.304 602.668 500.645 602.668C501.442 602.668 506.335 592.312 508.27 586.678C511.684 576.436 511.684 568.867 508.327 560.673C507.189 557.942 506.108 555.324 505.937 554.926C505.709 554.357 506.221 554.528 507.303 555.324C508.27 556.007 509.18 556.576 509.351 556.576C509.806 556.576 518.285 565.339 518.285 565.795C518.285 566.079 518.569 566.25 518.854 566.25C520.163 566.25 518.968 559.08 516.805 553.731C514.928 548.951 511.229 543.375 507.246 539.05C505.254 536.888 505.482 536.831 509.92 538.424C512.708 539.392 513.391 539.505 513.79 538.879C514.188 538.253 514.472 538.367 515.155 539.335C515.667 540.074 516.578 540.643 517.204 540.643C519.366 540.643 522.951 542.123 525.512 544.058C529.04 546.732 529.609 547.699 528.357 549.065C526.991 550.545 527.105 553.504 528.471 554.3C531.942 556.121 535.128 552.65 532.852 549.463C532.454 548.838 531.885 547.529 531.714 546.504C530.405 540.53 524.203 533.075 517.83 529.889C511.798 526.873 508.839 526.133 496.946 524.654C491.142 523.971 483.062 521.638 478.453 519.362C476.347 518.337 475.835 517.711 475.437 515.947C474.811 513.33 475.038 513.045 477.144 514.07C477.997 514.525 480.956 515.492 483.745 516.175C488.126 517.313 488.98 517.427 491.142 516.744C496.15 515.265 498.369 512.363 498.369 507.355C498.369 504.055 498.938 502.973 501.499 501.437C503.035 500.527 503.49 499.901 503.49 498.592C503.49 497.226 503.888 496.714 505.652 495.861C507.53 494.95 507.758 494.609 507.929 492.276C508.042 490.91 508.384 489.431 508.668 489.089C508.953 488.691 511.001 488.292 513.164 488.179C520.049 487.78 521.927 485.163 519.139 479.814C518.285 478.221 517.375 476.058 517.09 475.034C516.862 474.067 516.123 471.221 515.44 468.832C514.302 464.735 514.302 464.336 515.155 463.027C515.667 462.231 516.919 461.434 517.887 461.207C520.277 460.694 520.846 460.353 519.992 459.841C519.423 459.499 519.537 458.987 520.447 457.735C521.13 456.768 522.211 453.98 522.837 451.533C525.227 442.372 525.227 442.315 525.739 443.908C525.967 444.705 526.138 447.948 526.195 451.192C526.251 457.394 526.991 460.182 529.267 462.572C530.917 464.393 533.251 465.531 535.128 465.531H536.665L534.787 464.222C533.706 463.54 532.283 461.832 531.487 460.41C530.235 458.02 530.178 457.508 530.576 453.012C532.112 437.535 529.836 428.146 522.61 420.122C520.846 418.188 519.423 416.139 519.423 415.684C519.423 414.091 515.497 407.262 512.822 404.246L510.262 401.287L511.001 398.897C511.4 397.532 512.652 395.483 513.79 394.288C515.554 392.41 516.18 392.126 518.342 392.126C525.227 392.126 533.364 400.149 540.42 414.034C543.038 419.155 543.209 420.179 541.672 421.26C536.779 424.675 537.234 433.836 542.469 437.08C550.663 442.144 560.45 433.779 556.752 424.959C555.841 422.626 552.825 420.065 550.606 419.61C548.785 419.269 547.875 417.96 547.875 415.798C547.875 412.213 544.631 398.841 542.412 393.264C541.046 389.793 537.291 382.68 535.185 379.664C532.625 375.965 526.991 370.446 522.894 367.714C510.546 359.35 497.117 358.61 483.062 365.495C478.339 367.828 469.917 373.12 469.917 373.746C469.917 373.974 470.885 375.396 472.08 376.99C474.413 380.119 476.746 383.818 476.746 384.33C476.746 384.501 475.551 383.363 474.071 381.713C462.577 369.194 453.814 361.683 446.189 357.756C440.612 354.968 436.401 353.944 429.516 353.716C425.931 353.602 422.46 353.602 421.834 353.773ZM520.049 431.389C519.139 435.885 517.545 438.9 513.847 442.713L510.831 445.9L513.505 442.201C516.692 437.705 518.683 433.438 519.708 428.885C520.39 425.756 520.732 427.975 520.049 431.389ZM504.97 434.974C502.807 439.356 498.483 443.51 494.101 445.615C493.191 446.07 492.223 446.525 491.996 446.639C490.744 447.208 491.882 446.184 494.272 444.477C498.312 441.632 502.011 437.421 504.173 433.324C505.539 430.593 506.108 429.967 506.221 430.877C506.335 431.503 505.766 433.381 504.97 434.974ZM490.061 431.503C488.923 433.552 487.387 435.429 487.159 435.145C486.988 435.031 487.557 433.95 488.411 432.869C489.947 430.877 490.858 430.08 490.061 431.503ZM478.566 436.738C476.746 440.835 471.397 447.891 470.088 447.891C469.746 447.891 470.259 447.265 472.819 444.363C473.331 443.794 474.982 441.177 476.518 438.559C478.054 435.941 479.42 433.836 479.477 433.95C479.591 434.064 479.192 435.316 478.566 436.738ZM433.215 442.315C432.702 444.648 430.597 448.859 429.061 450.566C427.183 452.785 427.24 451.988 429.231 448.688C430.313 446.924 431.621 444.363 432.19 442.997C433.385 440.039 433.727 439.811 433.215 442.315ZM462.292 445.046C460.813 446.639 458.821 449.541 457.968 451.476C456.147 455.402 455.805 455.232 457.114 450.964C458.024 447.948 460.187 445.046 462.861 443.282C465.308 441.689 465.251 441.916 462.292 445.046ZM437.198 449.712C432.702 454.72 428.378 462.8 428.378 466.214C428.378 466.783 428.15 467.238 427.809 467.238C427.24 467.238 427.41 465.702 428.492 460.808C429.288 457.109 432.987 451.704 436.856 448.688C438.62 447.322 440.157 446.184 440.214 446.184C440.328 446.184 438.962 447.777 437.198 449.712ZM408.006 460.524C406.413 462.458 404.478 465.417 403.796 467.068C403.056 468.718 402.316 470.083 402.089 470.083C401.292 470.083 401.576 464.962 402.43 463.369C403.853 460.694 409.827 455.915 410.681 456.768C410.795 456.882 409.6 458.532 408.006 460.524ZM474.754 465.929C474.583 467.011 474.242 467.807 474.071 467.637C473.9 467.466 473.957 466.214 474.185 464.848C474.469 463.483 474.754 462.743 474.868 463.141C475.038 463.54 474.982 464.791 474.754 465.929ZM483.176 463.312C483.859 463.71 486.135 465.588 488.24 467.58C490.573 469.856 492.679 471.392 493.76 471.563C495.694 471.961 495.865 472.303 494.841 473.441C494.158 474.124 495.41 473.611 502.978 470.14C506.278 468.661 509.18 468.376 509.749 469.514C510.034 469.97 511.058 472.416 512.026 474.92C513.05 477.424 514.131 480.212 514.472 481.066C515.326 483.114 514.302 483.854 511.457 483.342C510.375 483.171 507.929 482.944 506.051 482.944C503.092 482.887 502.58 482.716 502.011 481.578C501.442 480.44 501.328 480.383 500.986 481.18C500.304 483 500.645 484.821 501.954 485.846C502.75 486.472 503.206 487.553 503.263 488.691C503.319 490.398 503.206 490.512 500.759 490.853C495.808 491.593 490.402 490.17 487.045 487.211C484.541 484.992 482.493 486.87 484.314 489.658C485.395 491.251 492.849 495.747 495.239 496.259C496.548 496.487 497.003 496.942 497.117 498.137C497.288 499.616 497.174 499.673 494.556 499.787C493.077 499.787 491.484 499.844 491.142 499.844C490.175 499.787 490.232 500.527 491.199 501.38C491.654 501.722 492.451 503.258 492.963 504.794C493.76 507.241 493.76 507.753 493.02 509.574C491.54 513.045 487.899 513.557 482.72 510.94C479.022 509.005 472.649 504.567 469.177 501.38C466.048 498.535 465.991 498.421 466.731 496.885C467.926 494.609 469.348 488.748 469.348 486.073C469.348 483.057 470.714 480.383 474.697 475.831C477.087 473.099 478.396 470.88 479.705 467.409C480.672 464.791 481.582 462.686 481.696 462.686C481.867 462.686 482.493 462.971 483.176 463.312ZM418.42 469.742C417.908 470.88 417.282 473.953 416.997 476.513C416.485 480.611 414.892 486.415 414.437 485.903C414.152 485.618 415.29 475.034 415.859 472.929C416.485 470.766 418.59 466.954 419.046 467.352C419.16 467.523 418.875 468.604 418.42 469.742ZM442.547 479.757C442.604 484.139 440.1 490.569 436.8 494.267C435.092 496.259 430.597 499.673 429.744 499.673C429.516 499.673 430.938 498.023 432.873 495.974C437.084 491.65 439.815 486.073 440.897 479.757C441.636 475.375 442.49 475.375 442.547 479.757ZM461.894 488.008C461.951 493.015 461.097 493.812 459.959 489.772C458.992 486.472 459.106 484.025 460.357 480.952C460.983 479.529 461.04 479.529 461.439 482.033C461.666 483.456 461.894 486.13 461.894 488.008ZM446.871 506.217C446.416 507.583 445.449 509.119 444.766 509.688L443.571 510.769L444.481 509.005C445.79 506.501 447.099 502.461 447.27 500.811C447.327 500.015 447.44 500.356 447.554 501.608C447.725 502.86 447.384 504.908 446.871 506.217ZM457.398 530.059C457.854 530.23 457.171 530.287 455.919 530.116C453.188 529.775 449.66 528.068 446.985 525.735C445.449 524.369 445.961 524.54 450.855 526.93C453.984 528.409 456.943 529.832 457.398 530.059ZM429.231 537.115C427.98 538.253 426.045 539.904 424.964 540.757C423.882 541.611 422.005 543.147 420.81 544.115L418.647 545.935L418.989 544.285C419.216 543.375 419.785 541.497 420.298 540.131C421.037 538.026 421.265 537.798 421.834 538.538C422.403 539.335 422.972 539.221 426.728 537.229C429.061 535.977 431.052 534.953 431.223 534.953C431.394 534.953 430.483 535.92 429.231 537.115ZM493.475 542.407C494.329 543.659 494.955 545.253 494.841 545.935C494.613 547.244 494.158 546.448 492.223 541.611C491.313 539.448 491.711 539.676 493.475 542.407ZM437.824 547.187C437.312 548.325 437.084 549.52 437.255 549.805C437.425 550.089 436.8 551.227 435.832 552.366L434.068 554.357L434.41 552.024C434.694 550.26 434.58 549.463 434.011 549.065C433.328 548.61 433.328 548.496 434.068 548.212C434.523 547.984 435.718 547.074 436.629 546.106C438.677 544.001 439.019 544.342 437.824 547.187ZM459.049 549.748C460.642 552.252 461.894 555.552 461.552 556.292C461.325 556.975 460.642 556.519 458.65 554.3L456.09 551.398L454.781 552.65C453.017 554.3 453.074 553.504 454.838 549.52C455.634 547.756 456.26 545.879 456.26 545.309C456.26 544.797 456.773 545.366 457.398 546.618C458.024 547.87 458.764 549.293 459.049 549.748ZM486.021 552.593C487.273 554.016 489.606 556.519 491.199 558.227C494.898 562.096 493.987 561.584 487.728 556.235C483.119 552.309 482.72 552.081 482.322 553.219C482.095 553.845 482.038 554.642 482.208 554.926C482.379 555.211 482.322 556.576 482.095 557.885C481.753 560.104 481.696 560.161 481.184 558.852C480.9 558.056 480.558 554.869 480.387 551.74L480.046 546.049L481.924 548.041C482.891 549.122 484.769 551.171 486.021 552.593ZM473.388 571.2C474.299 574.046 473.673 574.046 472.08 571.257C471.34 569.892 470.202 568.014 469.633 567.103L468.552 565.396L470.657 567.331C471.795 568.412 473.047 570.176 473.388 571.2ZM495.979 572.623C496.776 573.42 496.889 575.867 496.15 577.005C495.751 577.687 495.41 577.403 494.613 575.81C493.304 572.964 494.215 570.859 495.979 572.623Z" fill="#010101" stroke="#010101" stroke-width="0.266667" mask="url(#path-32-inside-1_3915_1292)"/>
<path d="M665.624 489.856C663.878 490.131 662.234 490.707 660.975 491.244C660.227 491.563 659.607 491.871 659.174 492.1C659.118 492.13 659.066 492.161 659.016 492.187C658.996 492.134 658.976 492.077 658.953 492.018C658.776 491.561 658.511 490.922 658.156 490.19C657.558 488.958 656.696 487.445 655.558 486.092C657.304 485.817 658.947 485.242 660.207 484.705C660.955 484.385 661.574 484.077 662.008 483.848C662.064 483.818 662.116 483.787 662.167 483.76C662.187 483.813 662.206 483.871 662.229 483.931C662.405 484.389 662.67 485.028 663.025 485.76C663.623 486.992 664.487 488.504 665.624 489.856Z" fill="#010101" stroke="#010101"/>
<path d="M656.75 393.371C655.323 394.535 654.147 395.919 653.298 397.066C652.797 397.743 652.406 398.342 652.139 398.774C652.1 398.836 652.065 398.896 652.032 398.952C651.982 398.911 651.929 398.866 651.871 398.82C651.474 398.505 650.903 398.073 650.202 397.605C649.016 396.813 647.442 395.907 645.706 395.294C647.132 394.131 648.308 392.747 649.157 391.601C649.658 390.924 650.05 390.324 650.317 389.893C650.356 389.83 650.39 389.769 650.423 389.714C650.474 389.755 650.526 389.8 650.584 389.846C650.981 390.163 651.553 390.595 652.253 391.064C653.44 391.856 655.014 392.76 656.75 393.371Z" fill="#010101" stroke="#010101"/>
<path d="M270.262 395.118C268.434 395.344 266.702 395.89 265.373 396.41C264.589 396.717 263.938 397.016 263.483 397.239C263.417 397.271 263.355 397.304 263.298 397.333C263.277 397.272 263.256 397.206 263.232 397.136C263.063 396.658 262.809 395.988 262.465 395.219C261.882 393.917 261.031 392.313 259.887 390.871C261.714 390.644 263.445 390.098 264.774 389.579C265.558 389.272 266.209 388.973 266.664 388.75C266.731 388.717 266.792 388.684 266.85 388.655C266.871 388.716 266.891 388.783 266.916 388.853C267.084 389.332 267.337 390.002 267.682 390.771C268.264 392.074 269.117 393.676 270.262 395.118Z" fill="#010101" stroke="#010101"/>
<path d="M258.94 487.631C257.479 488.853 256.282 490.303 255.421 491.502C254.915 492.206 254.52 492.829 254.252 493.277C254.21 493.348 254.172 493.415 254.136 493.477C254.08 493.433 254.02 493.384 253.955 493.333C253.541 493.014 252.946 492.578 252.218 492.107C250.979 491.305 249.336 490.391 247.53 489.785C248.99 488.563 250.187 487.114 251.048 485.915C251.554 485.21 251.949 484.586 252.218 484.138C252.26 484.067 252.297 483.999 252.334 483.938C252.39 483.982 252.449 484.032 252.515 484.083C252.929 484.403 253.524 484.839 254.252 485.31C255.491 486.113 257.134 487.027 258.94 487.631Z" fill="#010101" stroke="#010101"/>
<defs>
<filter id="filter0_d_3915_1292" x="62.6387" y="65.9219" width="797.912" height="813.152" filterUnits="userSpaceOnUse" color-interpolation-filters="sRGB">
<feFlood flood-opacity="0" result="BackgroundImageFix"/>
<feColorMatrix in="SourceAlpha" type="matrix" values="0 0 0 0 0 0 0 0 0 0 0 0 0 0 0 0 0 0 127 0" result="hardAlpha"/>
<feOffset dy="4"/>
<feGaussianBlur stdDeviation="2"/>
<feComposite in2="hardAlpha" operator="out"/>
<feColorMatrix type="matrix" values="0 0 0 0 0 0 0 0 0 0 0 0 0 0 0 0 0 0 0.25 0"/>
<feBlend mode="normal" in2="BackgroundImageFix" result="effect1_dropShadow_3915_1292"/>
<feBlend mode="normal" in="SourceGraphic" in2="effect1_dropShadow_3915_1292" result="shape"/>
</filter>
</defs>
</svg>
