<svg width="651" height="664" viewBox="0 0 651 664" fill="none" xmlns="http://www.w3.org/2000/svg">
<path d="M113.146 197.558C115.443 194.411 116.76 190.865 117.087 186.914C117.414 182.955 116.91 178.85 115.58 174.599C114.245 170.349 112.256 166.172 109.604 162.067C106.952 157.962 103.792 154.22 100.123 150.842L92.5486 161.195L62.6518 139.344C61.4076 138.436 59.8909 137.96 58.1109 137.91C56.3218 137.864 54.896 138.563 53.8426 140.017L49.9556 145.338L48.4844 144.249L70.8071 113.68L72.2783 114.769L68.3914 120.091C67.3379 121.544 67.1109 123.12 67.7012 124.814C68.2824 126.498 69.1996 127.793 70.4438 128.701L98.0521 148.88L105.971 138.019C111.298 141.919 115.421 146.319 118.341 151.223C121.256 156.127 123.145 161.168 124.007 166.335C124.879 171.494 124.807 176.429 123.79 181.138C122.772 185.852 120.992 189.947 118.449 193.435L108.641 206.839C108.301 207.303 108.119 207.757 108.096 208.202C108.083 208.638 108.514 209.019 109.386 209.346L111.329 210L110.167 211.58L72.4055 199.102L81.6506 158.67L83.249 159.833L79.253 177.506C78.5901 180.63 78.522 183.627 79.0532 186.496C79.5754 189.366 80.4836 191.955 81.7777 194.252C83.0628 196.541 84.4977 198.466 86.0825 200.028C87.6717 201.59 89.1975 202.616 90.6596 203.098L95.7453 204.823C97.2256 205.295 99.0238 205.35 101.158 204.987C103.288 204.623 105.322 203.97 107.261 203.025C109.209 202.081 110.589 201.054 111.402 199.937L113.146 197.558Z" fill="white"/>
<path d="M160.386 149.321L134.358 157.695L98.3398 116.991L99.4841 98.3551L124.913 127.089L121.916 118.008L134.993 106.42L137.99 115.538L124.913 127.089L139.153 143.182L161.203 136.044L160.386 149.321ZM99.4841 98.3551L100.301 85.0777L120.862 78.4844L120.045 91.7618L99.4841 98.3551Z" fill="white"/>
<path d="M170.162 55.4689L143.789 64.5142L157.956 87.7814L168.182 88.5806L172.16 72.5606L189.851 73.9228L209.867 106.798L199.514 121.674L169.654 132.3L166.82 121.583L197.08 111.139L182.077 86.51L171.706 85.6927L167.746 101.713L150.201 100.387L131.002 68.8734L141.391 53.9795L167.347 44.7344L170.162 55.4689Z" fill="white"/>
<path d="M233.09 26.3263L217.107 30.5947L237.486 87.7728L247.33 90.6244L241.609 102.63L227.314 98.5436L205.5 37.3332L211.93 32.0477L186.156 39.0406L191.841 27.0165L238.794 14.3203L233.09 26.3263Z" fill="white"/>
<path d="M291.235 90.8279L264.862 83.6352L256.906 29.8536L268.004 14.8871L273.635 52.8302L276.069 43.567L293.36 41.0059L290.89 50.2692L273.635 52.8302L276.777 74.0813L299.154 80.1479L291.235 90.8279ZM268.004 14.8871L275.923 4.20703L296.757 9.87399L288.837 20.5722L268.004 14.8871Z" fill="white"/>
<path d="M333.419 9.39044L333.092 14.7486L349.966 2.86981L366.767 28.8615C362.662 30.6688 358.975 32.2898 355.705 33.7293C352.436 35.1597 349.166 36.59 345.897 38.0158L365.604 48.1328L363.988 75.1962L371.925 81.6623L361.972 90.4897L350.42 81.1174L351.982 55.0167L331.33 44.5001L329.605 73.1437L337.542 79.6098L327.607 88.4372L316.037 79.0649L319.851 15.2935L311.932 8.82738L321.867 0L333.419 9.39044ZM331.494 41.6848L353.126 31.9856L340.793 12.8596L332.874 18.3994L331.494 41.6848Z" fill="white"/>
<path d="M467.982 53.1604L448.71 40.9547L446.785 41.4632L443.643 64.3854L454.922 69.0533L448.075 75.7193L442.444 73.3944L438.975 96.1348L412.62 104.544L402.049 90.5042L413.764 86.7626L424.353 100.803L429.239 67.9272L419.413 63.8586L426.261 57.1927L430.565 58.9727L432.836 42.5894L445.623 38.884L425.952 26.3695L438.212 21.2656L474.993 44.5692L467.982 53.1604Z" fill="white"/>
<path d="M464.962 131.625L450.014 108.758L479.693 63.2222L497.947 59.3716L476.986 91.5025L484.96 86.217L499.6 95.7527L491.608 101.038L476.986 91.5025L465.253 109.502L477.985 128.883L464.962 131.625ZM497.947 59.3716L510.97 56.6289L522.794 74.7196L509.771 77.4441L497.947 59.3716Z" fill="white"/>
<path d="M558.085 116.133L542.356 93.1197L523.684 112.954L525.627 123.016L542.12 122.599L545.498 140.017L519.125 168.043L502.015 162.013L483.852 136.058L493.442 130.463L511.532 156.873L531.294 135.876L529.333 125.668L512.84 126.068L509.462 108.831L534.745 81.9492L551.855 87.9976L567.657 110.575L558.085 116.133Z" fill="white"/>
<path d="M602.85 169.062L594.495 154.804L544.782 189.623L544.655 199.867L531.541 197.56L531.704 182.684L584.923 145.395L591.734 150.19L578.13 127.195L591.244 129.484L615.964 171.387L602.85 169.062Z" fill="white"/>
<path d="M20.8486 416.302C21.3935 418.831 22.5242 421.296 24.2451 423.694C25.9752 426.101 28.1048 428.28 30.6386 430.233C33.1815 432.194 35.9832 433.684 39.0482 434.701C42.1088 435.718 45.2465 436.09 48.4568 435.827L48.7838 437.316C42.8716 437.666 37.3999 436.94 32.3641 435.137C27.3238 433.343 23.1372 430.723 19.7951 427.272C16.4531 423.821 14.2735 419.698 13.2563 414.903C11.8396 408.328 12.0939 402.225 14.0192 396.594C15.9536 390.973 19.3138 386.209 24.0998 382.3C28.895 378.404 34.8798 375.688 42.0634 374.163C48.8928 372.7 55.3135 372.782 61.3346 374.417C67.3512 376.042 72.4415 378.994 76.61 383.281C80.7876 387.567 83.5847 392.998 85.0015 399.573C85.4465 401.689 85.5509 403.905 85.3102 406.221C85.0787 408.532 84.729 410.712 84.2568 412.76C84.1205 413.414 84.0297 413.963 83.9843 414.413C83.948 414.871 83.9525 415.239 84.0025 415.52C84.1569 416.247 84.5156 416.415 85.0741 416.029L88.1437 414.322L88.4525 415.811L59.3185 432.467L58.9916 430.977L68.0006 425.819C69.4264 425.02 70.9794 424.094 72.6504 423.04C74.3305 421.996 75.9743 420.724 77.5727 419.226C79.171 417.736 80.4652 415.888 81.4596 413.686C82.5358 411.288 83.1488 409.045 83.2941 406.966C83.4394 404.895 83.2442 402.593 82.7129 400.063C82.1044 397.275 80.6786 394.751 78.4263 392.489C76.1741 390.224 73.3951 388.33 70.0894 386.804C66.7836 385.288 63.1964 384.302 59.3367 383.844C55.4861 383.38 51.6627 383.558 47.8756 384.37C44.025 385.192 40.2924 386.514 36.687 388.33C33.0907 390.146 29.9303 392.417 27.2058 395.141C24.4903 397.875 22.5242 401.026 21.3027 404.586C20.0903 408.146 19.9404 412.051 20.8486 416.302Z" fill="white"/>
<path d="M30.7181 452.007L69.5876 434.806L85.9527 443.379L82.8468 425.797L93.1999 429.793L99.5207 465.011L51.9147 486.081L50.171 494.436L39.8179 490.44L42.3426 478.289L88.5682 457.819L86.4976 446.376L79.2505 442.562L59.2163 451.425L67.19 451.335L73.0931 464.666L65.1194 464.757L59.2163 451.425L40.2901 459.799L38.5465 468.154L28.1934 464.158L30.7181 452.007Z" fill="white"/>
<path d="M56.5312 508.582L98.7791 476.088L98.5067 467.551L109.514 468.968L109.931 481.391L107.915 482.935L123.118 486.677L130.529 501.807L125.443 505.712L140.627 509.454L148.038 524.584L102.721 559.421L102.975 567.958L91.9861 566.523L91.5683 554.135L135.596 520.279L130.329 509.417L123.009 507.583L107.425 519.571L112.874 526.672L105.136 528.634L101.613 524.039L85.2111 536.644L85.4654 545.181L74.4766 543.746L74.0407 531.359L94.8922 515.32L89.3705 508.109L97.1081 506.148L100.704 510.852L118.069 497.502L112.819 486.64L105.481 484.806L67.6835 513.867L67.956 522.404L56.949 520.969L56.5312 508.582Z" fill="white"/>
<path d="M112.127 574.88L138.736 541.751L157.226 541.823L146.383 527.656L157.408 526.457L179.222 554.792L146.637 595.387L148.908 603.633L137.883 604.85L134.522 592.88L166.163 553.466L159.079 544.239L150.887 544.203L137.174 561.276L144.222 557.534L155.574 566.652L148.544 570.394L137.174 561.276L124.224 577.405L126.494 585.651L115.469 586.85L112.127 574.88Z" fill="white"/>
<path d="M165.914 603.65L190.18 560.367L190.162 560.24L202.477 558.859L205.492 569.521L197.137 570.484L174.069 611.624L189.163 626.372L178.483 629.388L155.252 606.647L165.914 603.65Z" fill="white"/>
<path d="M211.779 643.907L195.596 627.796L211.997 585.53L226.237 579.264L214.667 609.088L220.28 603.385L233.848 608.634L228.253 614.355L214.667 609.088L208.183 625.816L221.914 639.421L211.779 643.907ZM226.237 579.264L236.391 574.777L249.178 587.492L239.024 591.96L226.237 579.264Z" fill="white"/>
<path d="M237.178 645.541L246.078 603.983L262.643 595.755L246.604 587.945L255.922 581.933L288.108 597.481L277.192 648.374L282.949 654.713L273.613 660.762L265.276 651.571L275.866 602.131L265.404 597.099L258.047 600.714L253.452 622.128L258.084 615.626L272.324 618.677L267.692 625.198L253.452 622.128L249.111 642.344L254.851 648.701L245.533 654.732L237.178 645.541ZM267.075 576.084L264.75 576.72L268.528 570.254C269.254 569.854 270.185 569.573 271.325 569.4C272.474 569.219 273.477 569.228 274.34 569.418C274.544 569.455 274.848 569.918 275.248 570.799C275.648 571.684 276.056 572.679 276.483 573.778C276.905 574.881 277.269 575.862 277.573 576.72C277.873 577.583 278.027 578.01 278.027 578.01C278.754 578.169 279.344 577.846 279.807 577.047L282.314 572.579L284.729 571.943L280.951 578.427C280.188 578.745 279.244 579.009 278.118 579.227C277.001 579.445 275.984 579.454 275.066 579.245C274.858 579.208 274.558 578.75 274.158 577.864C273.759 576.983 273.345 575.994 272.923 574.904C272.496 573.805 272.129 572.815 271.815 571.943C271.511 571.071 271.361 570.635 271.361 570.635C270.766 570.517 270.153 570.94 269.527 571.907L267.075 576.084Z" fill="white"/>
<path d="M318.64 656.499L320.892 606.623L303.528 598.104L311.719 590.621L332.189 600.72L330.137 646.001L318.64 656.499ZM310.448 664.001L289.996 653.884L292.049 608.603L303.528 598.104L301.276 647.981L318.64 656.499L310.448 664.001Z" fill="white"/>
<path d="M385.061 658.316L362.847 653.14L354.746 609.566L363.555 596.725L372.492 644.821L391.327 649.162L385.061 658.316ZM363.555 596.725L369.84 587.57L387.386 591.657L381.119 600.793L363.555 596.725Z" fill="white"/>
<path d="M428.697 576.093L446.951 626.152L455.161 628.495L450.475 638.557L438.524 635.215L437.652 632.817L429.515 646.186L412.859 648.692L393.279 594.983L385.051 592.677L389.737 582.614L401.688 585.938L420.705 638.121L432.639 636.377L436.598 629.93L420.269 585.139L412.06 582.832L416.728 572.77L428.697 576.093Z" fill="white"/>
<path d="M463.942 613.673L439.203 570.662L439.076 570.608L444.198 559.328L454.915 562.198L451.445 569.863L474.967 610.748L495.382 605.354L492.476 616.089L461.054 624.389L463.942 613.673Z" fill="white"/>
<path d="M498.122 533.916L486.77 541.744L518.81 580.959L527.347 580.432L526.221 591.475L513.852 592.256L479.541 550.281L483.101 544.342L464.811 557.056L465.919 546.031L499.248 522.891L498.122 533.916Z" fill="white"/>
<path d="M530.014 492.707L565.342 523.058L564.052 558.785L581.652 538.297L581.126 554.208L563.453 574.787L561.073 574.733L561.782 554.68L550.956 563.072L508.363 526.491L500.044 528.507L499.209 517.445L511.288 514.503L552.645 550.03L562.236 542.565L562.49 535.1L527.09 504.695L518.771 506.711L517.935 495.649L530.014 492.707Z" fill="white"/>
<path d="M537.27 480.13L541.157 482.383L538.632 465.4L564.279 462.566C564.088 466.299 563.911 469.65 563.752 472.629C563.598 475.608 563.444 478.582 563.298 481.547L578.229 470.631L597.809 481.965L605.601 478.477L608.434 489.194L597.137 494.298L578.265 483.363L562.681 494.843L583.405 506.83L591.197 503.343L594.049 514.059L582.733 519.163L536.616 492.463L528.824 495.969L525.973 485.252L537.27 480.13ZM560.646 493.662L561.482 473.918L542.647 475.953L543.809 483.908L560.646 493.662Z" fill="white"/>
<path d="M610.033 469.132L569.893 455.147L563.771 437.692L554.054 452.658L549.223 442.669L568.639 412.645L617.807 429.754L624.8 424.832L629.632 434.822L619.478 441.996L571.745 425.377L565.443 435.131L568.131 442.886L588.819 450.097L582.934 444.685L587.711 430.935L593.596 436.33L588.819 450.097L608.362 456.89L615.355 451.968L620.187 461.958L610.033 469.132Z" fill="white"/>
<path d="M619.117 408.814L570.203 400.44L570.094 400.513L564.682 389.361L573.727 382.949L577.396 390.505L623.894 398.461L632.74 379.316L639.169 388.344L625.529 417.877L619.117 408.814Z" fill="white"/>
<path d="M45.372 294.32L45.7171 290.633C45.8034 289.775 45.5082 288.989 44.8271 288.272C44.1369 287.559 43.424 287.164 42.6838 287.091L9.29962 283.931C8.7184 283.872 8.22344 283.963 7.81023 284.203C7.40155 284.449 7.16997 284.816 7.12002 285.311C7.07462 285.761 7.22446 286.324 7.57411 287.001L9.04534 289.761L7.88288 289.652L0 275.63L42.9926 279.699C43.8553 279.785 44.7181 279.581 45.5899 279.081C46.4618 278.586 46.9386 277.842 47.0248 276.847L47.3881 273.16L48.4234 273.251L46.4073 294.411L45.372 294.32Z" fill="white"/>
<path d="M645.265 255.581C645.833 258.351 645.742 260.749 644.993 262.774C644.253 264.794 643.068 266.434 641.433 267.696C639.798 268.968 637.932 269.821 635.839 270.257C633.55 270.729 631.175 270.675 628.718 270.094C626.271 269.512 624.06 268.395 622.089 266.752L608.285 252.384L600.838 253.91C599.989 254.078 599.221 254.528 598.531 255.254C597.841 255.99 597.596 256.853 597.805 257.833L600.057 268.84C600.247 269.749 600.733 270.298 601.51 270.493C602.295 270.698 603.04 270.548 603.744 270.039L609.901 265.353C610.601 264.867 611.155 264.254 611.554 263.519C611.963 262.792 612.085 262.029 611.917 261.23L611.518 259.268L612.535 259.069L616.331 277.541L615.314 277.74L614.569 274.126C614.388 273.227 613.902 272.673 613.116 272.455C612.34 272.246 611.6 272.4 610.9 272.909L605.56 276.941C604.797 277.509 604.098 278.313 603.471 279.357C602.854 280.41 602.645 281.432 602.854 282.427L603.58 286.023L602.563 286.223L593.627 242.631L594.644 242.431L595.026 244.247C595.216 245.237 595.775 245.927 596.697 246.318C597.614 246.717 598.499 246.831 599.348 246.663L603.453 245.827L614.751 257.615C617.303 260.276 620.154 262.247 623.306 263.519C626.453 264.79 630.09 264.999 634.222 264.154C635.829 263.814 637.446 263.183 639.072 262.265C640.706 261.343 642.005 260.176 642.977 258.76C643.958 257.352 644.248 255.69 643.849 253.765L642.868 248.915C642.468 246.999 641.624 245.455 640.343 244.284C639.058 243.121 637.691 242.267 636.238 241.723C634.794 241.191 633.604 240.887 632.66 240.814L624.141 239.888L623.923 238.816L644.611 241.014L644.829 242.104L643.685 241.977C643.213 241.927 642.913 242.018 642.795 242.249C642.672 242.476 642.641 242.758 642.704 243.085L645.265 255.581Z" fill="white"/>
<path d="M648.887 290.726L649.905 290.781L648.379 316.3C648.352 316.663 648.415 316.94 648.56 317.136C648.715 317.326 649.033 317.372 649.505 317.263L650.613 316.99L650.54 318.08L630.379 323.184L630.452 322.076L638.752 319.987C639.683 319.769 640.823 319.283 642.167 318.534C643.52 317.794 644.751 316.759 645.854 315.428C646.967 314.093 647.584 312.454 647.707 310.506L647.834 308.236C647.893 307.227 647.53 306.419 646.744 305.802C645.968 305.184 645.146 304.844 644.274 304.784L630.379 303.949L630.978 293.687L618.954 321.386C617.683 321.903 616.221 322.167 614.577 322.167C612.929 322.167 611.271 321.917 609.6 321.422C607.938 320.923 606.408 320.205 605.005 319.261C603.597 318.316 602.489 317.126 601.681 315.701C600.873 314.27 600.519 312.622 600.627 310.76L601.572 294.958C601.599 294.631 601.549 294.359 601.427 294.141C601.295 293.932 600.973 293.886 600.464 293.995L599.338 294.268L599.411 293.178L619.572 288.074L619.499 289.164L611.199 291.271C610.313 291.489 609.187 291.966 607.82 292.706C606.449 293.455 605.209 294.49 604.097 295.812C602.993 297.142 602.389 298.791 602.28 300.752L601.935 306.31C601.826 308.258 602.358 309.852 603.534 311.087C604.719 312.331 606.244 313.24 608.111 313.812C609.986 314.393 611.93 314.62 613.941 314.502C615.962 314.393 617.783 313.939 619.408 313.14C621.043 312.35 622.196 311.223 622.878 309.761L631.106 291.562L632.141 291.634L632.05 293.414C631.986 294.418 632.345 295.231 633.122 295.848C633.907 296.466 634.738 296.797 635.61 296.847L644.71 297.392C645.582 297.451 646.44 297.219 647.289 296.702C648.147 296.18 648.606 295.417 648.669 294.413L648.887 290.726Z" fill="white"/>
<path d="M271.563 155.199C270.653 155.364 267.676 156.026 264.946 156.522C243.359 160.657 221.111 179.846 209.862 203.831C206.306 211.606 202.336 223.185 200.765 230.463C199.772 235.343 199.607 235.591 196.877 236.087C193.404 236.584 188.855 239.975 187.2 243.2C185.794 246.012 185.546 251.967 186.87 255.358C188.937 260.817 194.148 264.125 200.516 264.043C213.584 263.96 219.374 248.742 209.78 239.644C205.892 235.922 205.892 236.17 212.426 227.486C220.036 217.23 230.953 207.139 238.314 203.335C246.833 199.034 255.683 198.207 261.472 201.102C268.503 204.741 277.766 216.568 277.766 221.861C277.766 223.102 276.856 222.027 275.202 218.636C273.796 215.658 271.315 212.267 269.33 210.613L265.939 207.718L259.818 211.936C256.51 214.252 251.878 218.222 249.562 220.704C242.532 228.395 240.961 231.125 232.855 248.99C225.825 264.704 223.84 267.93 215.983 277.276C203.825 291.833 199.359 300.269 198.531 310.359C198.201 314.908 198.531 316.976 200.02 321.112C201.013 324.006 202.584 327.315 203.411 328.555C206.389 332.773 209.118 339.555 209.118 342.947C209.118 346.172 208.953 346.42 206.554 346.917C205.065 347.165 202.667 348.736 201.178 350.39C198.697 352.954 198.366 353.864 198.366 357.586C198.366 362.879 200.351 366.436 204.404 368.338C216.893 374.293 227.562 357.999 216.975 349.315C214.246 347.082 214.163 346.751 214.908 344.104C216.148 339.886 215.9 330.044 214.494 325.412C212.757 319.788 212.923 312.179 214.825 307.961C215.735 306.059 217.885 302.916 219.705 300.931C221.442 298.946 223.179 296.464 223.509 295.307C223.757 294.149 225.991 291.75 228.306 289.93L232.607 286.622L230.457 290.509C229.216 292.743 228.472 294.479 228.72 294.479C229.051 294.479 231.284 292.908 233.682 291.006C240.216 286.043 245.262 279.757 247.66 273.72C251.63 263.464 251.382 263.795 252.457 267.599L253.367 270.825L259.157 263.464C266.435 253.952 266.435 253.87 265.36 256.847C264.864 258.17 264.367 262.968 264.285 267.599C264.119 273.72 263.623 276.78 262.465 279.178C259.653 285.133 254.442 292.246 247.412 299.607C239.224 308.374 237.239 311.848 237.239 317.969C237.239 321.773 237.57 322.766 239.72 325.082C244.352 330.044 242.45 339.142 235.998 342.202C233.682 343.277 232.773 343.36 231.036 342.616C228.637 341.54 228.472 341.789 230.291 344.518C233.104 348.736 241.622 349.15 246.254 345.262C248.239 343.608 248.735 343.525 249.149 344.518C250.307 347.744 246.668 356.263 241.953 361.308C239.141 364.203 233.517 367.263 230.953 367.263C230.126 367.263 228.306 366.684 226.983 366.022C223.84 364.368 223.757 364.451 225.164 367.097C226.9 370.406 228.885 371.894 233.269 372.97C239.307 374.376 248.984 371.812 254.029 367.428C255.931 365.774 256.675 366.601 255.435 369.082C251.878 375.947 242.367 380.992 238.976 377.767C238.066 376.94 238.066 377.105 238.81 378.677C240.63 382.15 243.359 383.225 249.645 382.812C254.525 382.564 255.931 382.068 259.239 379.834L263.044 377.105L261.307 379.586C257.502 384.962 254.111 386.782 232.69 394.97C211.765 402.993 202.832 410.354 201.178 421.106C200.847 422.925 200.268 424.58 199.937 424.828C198.697 425.572 199.11 429.956 200.516 431.279C201.178 432.023 202.667 432.602 203.659 432.602C207.299 432.602 209.697 427.723 207.299 425.324C205.727 423.753 211.103 418.873 216.81 416.557C220.201 415.234 222.351 413.579 224.585 410.85C226.983 407.873 227.81 407.294 228.058 408.369C228.224 409.196 228.72 410.354 229.134 410.85C229.712 411.594 229.63 412.504 228.72 413.91C227.397 415.895 227.479 415.978 229.961 416.805C232.111 417.549 233.186 417.384 237.57 415.316C240.299 413.993 243.938 412.587 245.51 412.339C248.322 411.843 248.239 411.843 243.856 414.82C237.57 419.038 235.171 421.437 231.119 427.64C226.983 433.843 223.675 441.866 222.517 448.152L221.772 452.535L226.9 447.573C230.209 444.347 234.344 441.535 238.314 439.633C242.45 437.565 244.765 435.911 245.427 434.505C246.916 431.196 247.329 432.768 246.42 438.061C245.923 440.79 245.096 445.588 244.6 448.896C243.773 454.272 243.525 454.851 241.457 455.595C237.322 457.001 235.585 459.731 235.585 464.362C235.667 472.799 243.607 476.934 250.141 471.889C254.442 468.58 254.856 462.212 250.969 457.994L249.149 456.009L255.187 449.475L261.224 442.941L264.698 444.926C266.683 446.001 269.991 448.4 272.225 450.219C275.285 452.7 276.36 453.279 277.27 452.535C278.841 451.212 281.074 452.287 281.074 454.355C281.074 455.264 282.398 457.167 283.969 458.573L286.781 461.137L286.947 470.317L287.195 479.581L284.714 481.648C281.571 484.378 281.322 489.837 284.3 492.235C286.864 494.385 291.33 494.303 293.398 492.07C296.293 488.927 296.293 485.453 293.315 481.318C292.571 480.16 293.398 478.671 298.278 472.22C305.721 462.46 310.519 457.001 309.112 459.896C308.534 461.054 307.045 463.37 305.721 465.024C304.398 466.761 303.488 468.498 303.819 468.994C304.067 469.408 306.052 470.814 308.203 472.054C320.113 478.919 333.677 488.761 342.113 496.701C347.158 501.498 351.459 505.138 351.707 504.724C352.121 504.062 357.166 487.273 357.166 486.528C357.166 486.363 358.82 487.521 360.805 489.175C362.79 490.829 364.858 492.152 365.437 492.152C367.587 492.152 382.557 510.017 384.542 515.145C384.956 516.138 385.618 516.965 386.114 516.965C387.272 516.965 394.385 501.912 397.197 493.724C402.159 478.836 402.159 467.836 397.28 455.926C395.625 451.956 394.054 448.152 393.806 447.573C393.475 446.745 394.219 446.994 395.791 448.152C397.197 449.144 398.52 449.971 398.768 449.971C399.43 449.971 411.754 462.708 411.754 463.37C411.754 463.783 412.167 464.032 412.581 464.032C414.483 464.032 412.746 453.61 409.603 445.836C406.874 438.888 401.498 430.783 395.708 424.497C392.813 421.354 393.144 421.271 399.595 423.587C403.648 424.993 404.641 425.159 405.22 424.249C405.799 423.339 406.212 423.504 407.205 424.91C407.949 425.986 409.272 426.813 410.182 426.813C413.325 426.813 418.536 428.963 422.257 431.775C427.385 435.663 428.212 437.069 426.393 439.054C424.408 441.204 424.573 445.505 426.558 446.663C431.604 449.309 436.235 444.264 432.927 439.633C432.348 438.723 431.521 436.82 431.273 435.332C429.37 426.647 420.355 415.813 411.092 411.181C402.325 406.797 398.024 405.722 380.738 403.572C372.302 402.579 360.557 399.188 353.858 395.88C350.797 394.391 350.053 393.481 349.474 390.917C348.564 387.113 348.895 386.699 351.955 388.188C353.196 388.85 357.497 390.256 361.55 391.248C367.918 392.902 369.159 393.068 372.302 392.075C379.58 389.925 382.806 385.707 382.806 378.428C382.806 373.631 383.633 372.06 387.355 369.827C389.588 368.503 390.249 367.594 390.249 365.691C390.249 363.706 390.828 362.962 393.392 361.721C396.122 360.398 396.452 359.902 396.701 356.511C396.866 354.526 397.362 352.375 397.776 351.879C398.189 351.3 401.167 350.721 404.31 350.556C414.317 349.977 417.047 346.172 412.994 338.398C411.754 336.082 410.43 332.939 410.017 331.45C409.686 330.044 408.611 325.909 407.618 322.435C405.964 316.48 405.964 315.901 407.205 313.999C407.949 312.841 409.769 311.683 411.175 311.352C414.648 310.608 415.475 310.111 414.235 309.367C413.408 308.871 413.573 308.126 414.896 306.307C415.889 304.901 417.46 300.848 418.37 297.292C421.844 283.975 421.844 283.893 422.588 286.209C422.919 287.367 423.167 292.081 423.25 296.795C423.333 305.81 424.408 309.863 427.716 313.337C430.115 315.984 433.506 317.638 436.235 317.638H438.468L435.739 315.735C434.167 314.743 432.1 312.262 430.942 310.194C429.122 306.72 429.04 305.976 429.619 299.442C431.852 276.945 428.543 263.298 418.039 251.637C415.475 248.824 413.408 245.847 413.408 245.185C413.408 242.869 407.701 232.944 403.814 228.561L400.092 224.26L401.167 220.786C401.746 218.801 403.565 215.824 405.22 214.087C407.784 211.358 408.693 210.944 411.836 210.944C421.844 210.944 433.671 222.606 443.927 242.787C447.732 250.23 447.98 251.719 445.747 253.291C438.634 258.253 439.295 271.569 446.905 276.284C458.815 283.645 473.04 271.487 467.664 258.667C466.341 255.276 461.957 251.554 458.732 250.892C456.085 250.396 454.762 248.494 454.762 245.351C454.762 240.14 450.047 220.704 446.822 212.598C444.837 207.553 439.378 197.214 436.318 192.831C432.596 187.455 424.408 179.432 418.453 175.462C400.505 163.304 380.986 162.229 360.557 172.236C353.692 175.628 341.451 183.319 341.451 184.229C341.451 184.56 342.857 186.628 344.594 188.944C347.985 193.493 351.376 198.869 351.376 199.613C351.376 199.861 349.64 198.207 347.489 195.808C330.782 177.613 318.045 166.695 306.962 160.988C298.857 156.935 292.736 155.447 282.729 155.116C277.518 154.95 272.473 154.95 271.563 155.199ZM414.317 268.013C412.994 274.547 410.678 278.93 405.302 284.472L400.919 289.103L404.806 283.727C409.438 277.193 412.332 270.99 413.821 264.374C414.814 259.825 415.31 263.05 414.317 268.013ZM392.4 273.223C389.257 279.592 382.971 285.63 376.602 288.69C375.279 289.352 373.873 290.013 373.542 290.179C371.723 291.006 373.377 289.517 376.851 287.036C382.723 282.9 388.099 276.78 391.242 270.825C393.227 266.855 394.054 265.945 394.219 267.268C394.385 268.178 393.558 270.908 392.4 273.223ZM370.73 268.178C369.076 271.156 366.843 273.885 366.512 273.472C366.264 273.306 367.091 271.735 368.332 270.163C370.565 267.268 371.888 266.11 370.73 268.178ZM354.023 275.787C351.376 281.742 343.602 291.998 341.7 291.998C341.203 291.998 341.948 291.088 345.67 286.87C346.414 286.043 348.812 282.239 351.046 278.434C353.279 274.629 355.264 271.569 355.346 271.735C355.512 271.9 354.933 273.72 354.023 275.787ZM288.105 283.893C287.36 287.284 284.3 293.404 282.067 295.885C279.337 299.111 279.42 297.953 282.315 293.156C283.886 290.592 285.789 286.87 286.616 284.885C288.353 280.584 288.849 280.254 288.105 283.893ZM330.369 287.863C328.218 290.179 325.323 294.397 324.083 297.209C321.436 302.916 320.94 302.668 322.842 296.464C324.165 292.081 327.308 287.863 331.196 285.299C334.752 282.983 334.669 283.314 330.369 287.863ZM293.894 294.645C287.36 301.923 281.074 313.668 281.074 318.63C281.074 319.457 280.744 320.119 280.247 320.119C279.42 320.119 279.668 317.886 281.24 310.773C282.398 305.397 287.774 297.54 293.398 293.156C295.962 291.171 298.195 289.517 298.278 289.517C298.443 289.517 296.458 291.833 293.894 294.645ZM251.465 310.359C249.149 313.172 246.337 317.472 245.344 319.871C244.269 322.269 243.194 324.254 242.863 324.254C241.705 324.254 242.119 316.811 243.359 314.495C245.427 310.608 254.111 303.66 255.352 304.901C255.517 305.066 253.781 307.465 251.465 310.359ZM348.482 318.217C348.234 319.788 347.737 320.946 347.489 320.698C347.241 320.45 347.324 318.63 347.655 316.645C348.068 314.66 348.482 313.585 348.647 314.164C348.895 314.743 348.812 316.563 348.482 318.217ZM360.722 314.412C361.715 314.991 365.023 317.72 368.084 320.615C371.475 323.924 374.535 326.157 376.106 326.405C378.918 326.984 379.166 327.48 377.678 329.134C376.685 330.127 378.505 329.382 389.505 324.337C394.302 322.187 398.52 321.773 399.347 323.427C399.761 324.089 401.25 327.645 402.656 331.285C404.144 334.924 405.716 338.977 406.212 340.217C407.453 343.195 405.964 344.27 401.829 343.525C400.257 343.277 396.701 342.947 393.971 342.947C389.67 342.864 388.926 342.616 388.099 340.962C387.272 339.307 387.106 339.225 386.61 340.383C385.618 343.029 386.114 345.676 388.016 347.165C389.174 348.074 389.836 349.646 389.919 351.3C390.001 353.781 389.836 353.947 386.279 354.443C379.084 355.518 371.226 353.45 366.347 349.15C362.707 345.924 359.73 348.653 362.377 352.706C363.948 355.022 374.783 361.556 378.257 362.3C380.159 362.631 380.821 363.293 380.986 365.03C381.234 367.18 381.069 367.263 377.264 367.428C375.114 367.428 372.798 367.511 372.302 367.511C370.896 367.428 370.978 368.503 372.384 369.744C373.046 370.24 374.204 372.473 374.948 374.707C376.106 378.263 376.106 379.007 375.031 381.654C372.881 386.699 367.587 387.444 360.061 383.639C354.685 380.827 345.421 374.376 340.376 369.744C335.827 365.609 335.745 365.443 336.82 363.21C338.557 359.902 340.624 351.383 340.624 347.495C340.624 343.112 342.609 339.225 348.399 332.608C351.873 328.638 353.775 325.412 355.677 320.367C357.083 316.563 358.407 313.502 358.572 313.502C358.82 313.502 359.73 313.916 360.722 314.412ZM266.6 323.758C265.856 325.412 264.946 329.879 264.533 333.6C263.788 339.555 261.472 347.992 260.811 347.247C260.397 346.834 262.051 331.45 262.879 328.39C263.788 325.247 266.849 319.705 267.51 320.284C267.676 320.533 267.262 322.104 266.6 323.758ZM301.669 338.315C301.751 344.683 298.112 354.029 293.315 359.405C290.834 362.3 284.3 367.263 283.059 367.263C282.729 367.263 284.796 364.864 287.608 361.887C293.729 355.601 297.699 347.495 299.27 338.315C300.345 331.946 301.586 331.946 301.669 338.315ZM329.79 350.308C329.872 357.586 328.632 358.744 326.977 352.872C325.571 348.074 325.737 344.518 327.556 340.052C328.466 337.984 328.549 337.984 329.128 341.623C329.459 343.691 329.79 347.578 329.79 350.308ZM307.955 376.774C307.293 378.759 305.887 380.992 304.894 381.819L303.157 383.391L304.481 380.827C306.383 377.188 308.285 371.315 308.534 368.917C308.616 367.759 308.782 368.255 308.947 370.075C309.195 371.894 308.699 374.872 307.955 376.774ZM323.256 411.429C323.917 411.677 322.925 411.76 321.105 411.512C317.135 411.015 312.007 408.534 308.12 405.143C305.887 403.158 306.631 403.406 313.744 406.88C318.293 409.03 322.594 411.098 323.256 411.429ZM282.315 421.685C280.495 423.339 277.683 425.738 276.112 426.978C274.54 428.219 271.811 430.452 270.074 431.858L266.931 434.505L267.427 432.106C267.758 430.783 268.585 428.053 269.33 426.068C270.405 423.008 270.736 422.677 271.563 423.753C272.39 424.91 273.217 424.745 278.676 421.85C282.067 420.031 284.962 418.542 285.21 418.542C285.458 418.542 284.135 419.948 282.315 421.685ZM375.693 429.377C376.933 431.196 377.843 433.512 377.678 434.505C377.347 436.407 376.685 435.249 373.873 428.219C372.55 425.076 373.129 425.407 375.693 429.377ZM294.804 436.324C294.06 437.978 293.729 439.715 293.977 440.129C294.225 440.542 293.315 442.197 291.909 443.851L289.345 446.745L289.841 443.354C290.255 440.79 290.09 439.633 289.262 439.054C288.27 438.392 288.27 438.227 289.345 437.813C290.007 437.482 291.744 436.159 293.067 434.753C296.045 431.693 296.541 432.189 294.804 436.324ZM325.654 440.046C327.97 443.685 329.79 448.482 329.293 449.558C328.962 450.55 327.97 449.888 325.075 446.663L321.353 442.445L319.451 444.264C316.887 446.663 316.97 445.505 319.534 439.715C320.692 437.151 321.601 434.422 321.601 433.595C321.601 432.85 322.346 433.678 323.256 435.497C324.165 437.317 325.241 439.384 325.654 440.046ZM364.858 444.182C366.677 446.249 370.069 449.888 372.384 452.37C377.76 457.994 376.437 457.249 367.339 449.475C360.64 443.768 360.061 443.437 359.482 445.091C359.151 446.001 359.068 447.159 359.316 447.573C359.565 447.986 359.482 449.971 359.151 451.873C358.655 455.099 358.572 455.182 357.828 453.279C357.414 452.122 356.918 447.49 356.67 442.941L356.174 434.67L358.903 437.565C360.309 439.136 363.038 442.114 364.858 444.182ZM346.497 471.227C347.82 475.363 346.91 475.363 344.594 471.31C343.519 469.325 341.865 466.595 341.038 465.272L339.466 462.791L342.527 465.603C344.181 467.174 346 469.738 346.497 471.227ZM379.332 473.295C380.49 474.453 380.655 478.009 379.58 479.663C379.001 480.656 378.505 480.242 377.347 477.927C375.445 473.791 376.768 470.731 379.332 473.295Z" fill="white"/>
<path fill-rule="evenodd" clip-rule="evenodd" d="M621.278 343.078C621.278 343.078 623.267 349.3 627.381 353.54C621.492 354.047 615.911 357.432 615.911 357.432C615.911 357.432 613.92 351.215 609.808 346.969C615.697 346.463 621.278 343.078 621.278 343.078Z" fill="white"/>
<path fill-rule="evenodd" clip-rule="evenodd" d="M603.623 206.324C603.623 206.324 608.662 210.844 614.561 212.478C609.562 216.017 606.347 221.968 606.347 221.968C606.347 221.968 601.31 217.454 595.409 215.813C600.408 212.274 603.623 206.324 603.623 206.324Z" fill="white"/>
<path fill-rule="evenodd" clip-rule="evenodd" d="M46.7211 204.853C46.7211 204.853 48.5828 211.361 52.709 215.883C46.5936 216.22 40.7055 219.549 40.7055 219.549C40.7055 219.549 38.8412 213.047 34.7175 208.518C40.8329 208.181 46.7211 204.853 46.7211 204.853Z" fill="white"/>
<path fill-rule="evenodd" clip-rule="evenodd" d="M24.987 343.285C24.987 343.285 30.2445 347.867 36.3466 349.464C31.2488 353.184 28.0241 359.362 28.0241 359.362C28.0241 359.362 22.7678 354.786 16.6645 353.182C21.7623 349.463 24.987 343.285 24.987 343.285Z" fill="white"/>
</svg>
