<svg width="378" height="177" viewBox="0 0 378 177" fill="none" xmlns="http://www.w3.org/2000/svg">
<path fill-rule="evenodd" clip-rule="evenodd" d="M374 131C374 131 359.935 142.203 353 157C346.047 142.203 332 131 332 131C332 131 346.047 119.797 353 105C359.953 119.797 374 131 374 131Z" fill="currentColor"/>
<path d="M170.074 73.07C172.058 73.07 173.918 72.5327 175.654 71.458C177.39 70.3833 178.919 68.9573 180.242 67.18C181.565 65.4027 182.66 63.3567 183.528 61.042C184.437 58.686 185.037 56.2473 185.326 53.726H178.816V34.94C178.816 34.1547 178.547 33.39 178.01 32.646C177.514 31.902 176.811 31.53 175.902 31.53H172.554V30.6H191.774V31.53H188.426C187.517 31.53 186.793 31.902 186.256 32.646C185.76 33.39 185.512 34.1547 185.512 34.94V52.3H192.332C192.332 55.648 191.753 58.6653 190.596 61.352C189.439 64.0387 187.951 66.312 186.132 68.172C184.313 70.032 182.267 71.4787 179.994 72.512C177.762 73.504 175.551 74 173.36 74H164.928C164.597 74 164.349 74.062 164.184 74.186C164.019 74.31 163.998 74.5993 164.122 75.054L164.432 76.046H163.44L157.24 56.826L176.584 48.518V49.51L168.152 53.168C166.664 53.8293 165.403 54.718 164.37 55.834C163.378 56.9087 162.593 58.0453 162.014 59.244C161.477 60.4427 161.125 61.6 160.96 62.716C160.795 63.832 160.836 64.762 161.084 65.506L161.89 68.11C162.055 68.6473 162.386 69.226 162.882 69.846C163.419 70.4247 164.019 70.962 164.68 71.458C165.341 71.9127 166.023 72.3053 166.726 72.636C167.429 72.9253 168.049 73.07 168.586 73.07H170.074ZM206 69.04V41.45L212.696 34.754V54.222L214.618 49.758H223.484L221.562 54.222H212.696V65.134L223.484 69.846L218.71 74.62L206 69.04ZM217.47 29.98L227.514 34.382L222.74 39.156L212.696 34.754L217.47 29.98ZM247.287 35.126V48.952L251.503 51.99L257.455 46.1L264.771 51.37V70.9L256.339 74.62L240.591 71.334L242.203 65.94L258.075 69.412V54.78L253.797 51.68L247.845 57.57L240.591 52.362V33.638L249.023 29.918L262.725 32.77L261.113 38.164L247.287 35.126ZM291.548 35.994V66.808L295.764 69.846L290.99 74.62L284.852 70.218V37.234L288.82 35.808L275.304 34.754L280.078 29.98L304.692 31.902L299.918 36.676L291.548 35.994ZM311.712 69.04V41.45L318.408 34.754V54.222L320.33 49.758H329.196L327.274 54.222H318.408V65.134L329.196 69.846L324.422 74.62L311.712 69.04ZM323.182 29.98L333.226 34.382L328.452 39.156L318.408 34.754L323.182 29.98ZM354.491 37.11L362.675 30.6L371.975 43.248C369.908 44.3227 368.069 45.2733 366.457 46.1C364.886 46.8853 363.295 47.6913 361.683 48.518L371.975 53.044V66.808L376.191 69.846L371.417 74.62L365.279 70.218V56.95L354.491 52.238V66.808L358.707 69.846L353.933 74.62L347.795 70.218V37.792L343.579 34.754L348.353 29.98L354.491 34.382V37.11ZM365.155 45.232L358.335 35.932L354.491 38.97V50.812L365.155 45.232Z" fill="currentColor"/>
<path d="M158.852 119.652L162.262 121.636C162.345 120.272 162.572 118.949 162.944 117.668C163.357 116.345 163.998 115.167 164.866 114.134C165.734 113.059 166.871 112.212 168.276 111.592C169.681 110.931 171.438 110.6 173.546 110.6H182.474C182.805 110.6 183.053 110.538 183.218 110.414C183.383 110.29 183.404 110.001 183.28 109.546L182.97 108.554H183.962L189.666 126.472H188.674L186.318 119.094C186.153 118.474 185.822 117.751 185.326 116.924C184.871 116.056 184.272 115.229 183.528 114.444C182.784 113.617 181.875 112.935 180.8 112.398C179.767 111.819 178.589 111.53 177.266 111.53H175.406C174.373 111.53 173.422 111.84 172.554 112.46C171.686 113.039 170.942 113.824 170.322 114.816C169.702 115.767 169.247 116.841 168.958 118.04C168.669 119.197 168.565 120.355 168.648 121.512C168.731 122.669 169.041 123.765 169.578 124.798C170.115 125.79 170.901 126.596 171.934 127.216L181.668 132.858V133.974L173.856 129.448H173.112C172.203 129.448 171.479 129.82 170.942 130.564C170.446 131.308 170.198 132.073 170.198 132.858V149.66C170.198 150.445 170.446 151.21 170.942 151.954C171.479 152.698 172.203 153.07 173.112 153.07H176.46V154H157.24V153.07H160.588C161.497 153.07 162.2 152.698 162.696 151.954C163.233 151.21 163.502 150.445 163.502 149.66V128.518H172.306L158.852 120.706V119.652ZM203.336 149.04V121.45L210.032 114.754V134.222L211.954 129.758H220.82L218.898 134.222H210.032V145.134L220.82 149.846L216.046 154.62L203.336 149.04ZM214.806 109.98L224.85 114.382L220.076 119.156L210.032 114.754L214.806 109.98ZM244.623 115.126V128.952L248.839 131.99L254.791 126.1L262.107 131.37V150.9L253.675 154.62L237.927 151.334L239.539 145.94L255.411 149.412V134.78L251.133 131.68L245.181 137.57L237.927 132.362V113.638L246.359 109.918L260.061 112.77L258.449 118.164L244.623 115.126ZM288.884 115.994V146.808L293.1 149.846L288.326 154.62L282.188 150.218V117.234L286.156 115.808L272.64 114.754L277.414 109.98L302.028 111.902L297.254 116.676L288.884 115.994Z" fill="currentColor"/>
<mask id="path-4-inside-1_3929_431" fill="white">
<path d="M42.0502 0.0968323C41.6031 0.177719 40.1398 0.501266 38.7984 0.743942C28.1895 2.76614 17.2553 12.1492 11.7273 23.8781C9.97946 27.6798 8.02839 33.342 7.25609 36.9011C6.76832 39.2873 6.68703 39.4086 5.34567 39.6513C3.63848 39.894 1.40288 41.5522 0.589933 43.1295C-0.101071 44.5046 -0.223013 47.4166 0.427344 49.0748C1.44353 51.7441 4.00431 53.3619 7.13415 53.3215C13.5564 53.281 16.4017 45.8393 11.6866 41.3904C9.77623 39.5704 9.77623 39.6918 12.9874 35.4451C16.7269 30.43 22.0924 25.4958 25.71 23.6354C29.8966 21.5323 34.2459 21.1278 37.0912 22.5434C40.5462 24.3229 45.0987 30.1065 45.0987 32.6949C45.0987 33.3016 44.6516 32.7758 43.8387 31.1176C43.1477 29.6616 41.9282 28.0034 40.9527 27.1945L39.2862 25.7789L36.2783 27.8416C34.6524 28.974 32.3761 30.9153 31.238 32.1287C27.783 35.89 27.0107 37.2247 23.0272 45.9606C19.5722 53.645 18.5967 55.2224 14.7352 59.7925C8.76004 66.9107 6.56509 71.036 6.15862 75.9703C5.99603 78.1947 6.15862 79.2058 6.89027 81.228C7.37803 82.6436 8.15033 84.2613 8.55681 84.868C10.0201 86.9306 11.3615 90.2471 11.3615 91.9053C11.3615 93.4826 11.2802 93.6039 10.1014 93.8466C9.36975 93.9679 8.19098 94.7364 7.45933 95.5453C6.23991 96.799 6.07732 97.2439 6.07732 99.0639C6.07732 101.652 7.05286 103.391 9.04457 104.322C15.1823 107.234 20.4258 99.2661 15.223 95.0195C13.8816 93.9275 13.841 93.7657 14.2068 92.4715C14.8165 90.4089 14.6945 85.596 14.0035 83.3311C13.15 80.5809 13.2312 76.86 14.1661 74.7974C14.6133 73.8671 15.6701 72.3303 16.5643 71.3596C17.4179 70.3889 18.2715 69.1756 18.4341 68.6094C18.556 68.0432 19.6535 66.8703 20.7916 65.9805L22.9053 64.3627L21.8485 66.2636C21.2388 67.3556 20.8729 68.205 20.9949 68.205C21.1575 68.205 22.2549 67.4365 23.4337 66.5063C26.6449 64.0796 29.1243 61.0059 30.3031 58.0534C32.2542 53.0384 32.1322 53.2001 32.6607 55.0606L33.1078 56.6379L35.9531 53.0384C39.5301 48.3873 39.5301 48.3468 39.0016 49.8028C38.7578 50.4499 38.5139 52.7957 38.4732 55.0606C38.3919 58.0534 38.148 59.5499 37.579 60.7228C36.197 63.6348 33.6362 67.113 30.1812 70.7125C26.1571 74.9996 25.1816 76.6982 25.1816 79.6911C25.1816 81.5516 25.3441 82.0369 26.401 83.1693C28.6772 85.596 27.7423 90.0449 24.5718 91.5413C23.4337 92.0671 22.9866 92.1075 22.133 91.7435C20.9542 91.2177 20.8729 91.3391 21.7672 92.6737C23.1492 94.7364 27.3359 94.9386 29.6121 93.0377C30.5876 92.2288 30.8315 92.1884 31.0348 92.6737C31.6038 94.2511 29.8153 98.4168 27.4985 100.884C26.1164 102.299 23.3524 103.796 22.0924 103.796C21.6859 103.796 20.7916 103.513 20.1413 103.189C18.5967 102.38 18.556 102.421 19.247 103.715C20.1006 105.333 21.0762 106.061 23.2305 106.587C26.1977 107.274 30.9535 106.02 33.433 103.877C34.3678 103.068 34.7337 103.472 34.124 104.686C32.3761 108.043 27.7017 110.51 26.0352 108.932C25.588 108.528 25.588 108.609 25.9539 109.377C26.8481 111.076 28.1895 111.602 31.2787 111.399C33.6768 111.278 34.3678 111.035 35.9937 109.943L37.8635 108.609L37.0099 109.822C35.1401 112.451 33.4736 113.341 22.946 117.345C12.6622 121.268 8.27227 124.867 7.45933 130.125C7.29674 131.015 7.01221 131.824 6.84962 131.945C6.23991 132.309 6.44315 134.453 7.13415 135.1C7.45933 135.464 8.19098 135.747 8.67875 135.747C10.4672 135.747 11.646 133.361 10.4672 132.188C9.69493 131.419 12.337 129.033 15.1417 127.901C16.8082 127.254 17.865 126.445 18.9625 125.11C20.1413 123.654 20.5478 123.371 20.6697 123.897C20.751 124.301 20.9949 124.867 21.1981 125.11C21.4827 125.474 21.442 125.919 20.9949 126.606C20.3445 127.577 20.3852 127.618 21.6046 128.022C22.6614 128.386 23.1898 128.305 25.3441 127.294C26.6855 126.647 28.474 125.959 29.2463 125.838C30.6283 125.595 30.5876 125.595 28.4333 127.051C25.3441 129.114 24.1654 130.287 22.1737 133.32C20.1413 136.354 18.5154 140.277 17.9463 143.35L17.5805 145.494L20.1006 143.067C21.7265 141.49 23.7589 140.115 25.71 139.185C27.7423 138.174 28.8805 137.365 29.2056 136.677C29.9373 135.059 30.1405 135.828 29.6934 138.416C29.4495 139.751 29.0431 142.097 28.7992 143.714C28.3927 146.343 28.2708 146.626 27.2546 146.99C25.2222 147.678 24.3686 149.013 24.3686 151.277C24.4093 155.403 28.3114 157.425 31.5225 154.958C33.6362 153.34 33.8394 150.226 31.929 148.163L31.0348 147.193L34.002 143.997L36.9693 140.802L38.6765 141.773C39.652 142.299 41.2779 143.472 42.3754 144.361C43.8793 145.575 44.4077 145.858 44.8549 145.494C45.6272 144.847 46.7246 145.373 46.7246 146.384C46.7246 146.829 47.375 147.759 48.1473 148.446L49.5293 149.7L49.6106 154.189L49.7325 158.719L48.5131 159.73C46.9685 161.065 46.8466 163.734 48.3099 164.907C49.5699 165.959 51.7649 165.918 52.7811 164.826C54.2037 163.289 54.2037 161.591 52.7404 159.569C52.3746 159.002 52.7811 158.274 55.1793 155.12C58.8375 150.347 61.1951 147.678 60.5041 149.093C60.2195 149.66 59.4879 150.792 58.8375 151.601C58.1872 152.45 57.74 153.3 57.9026 153.542C58.0246 153.745 59.0001 154.432 60.0569 155.039C65.9102 158.396 72.5763 163.209 76.7223 167.091C79.2018 169.437 81.3155 171.216 81.4374 171.014C81.6407 170.691 84.1202 162.481 84.1202 162.117C84.1202 162.036 84.9331 162.602 85.9086 163.411C86.8842 164.22 87.9004 164.867 88.1849 164.867C89.2417 164.867 96.5989 173.603 97.5744 176.11C97.7776 176.596 98.1028 177 98.3467 177C98.9158 177 102.411 169.639 103.793 165.635C106.232 158.355 106.232 152.976 103.834 147.152C103.021 145.211 102.249 143.35 102.127 143.067C101.964 142.663 102.33 142.784 103.102 143.35C103.793 143.836 104.444 144.24 104.566 144.24C104.891 144.24 110.947 150.469 110.947 150.792C110.947 150.994 111.151 151.116 111.354 151.116C112.289 151.116 111.435 146.02 109.891 142.218C108.549 138.821 105.907 134.857 103.062 131.783C101.639 130.246 101.802 130.206 104.972 131.338C106.964 132.026 107.452 132.107 107.736 131.662C108.021 131.217 108.224 131.298 108.712 131.986C109.078 132.511 109.728 132.916 110.175 132.916C111.72 132.916 114.28 133.967 116.11 135.342C118.63 137.243 119.036 137.931 118.142 138.902C117.166 139.953 117.248 142.056 118.223 142.622C120.703 143.917 122.979 141.45 121.353 139.185C121.069 138.74 120.662 137.81 120.54 137.082C119.605 132.835 115.175 127.537 110.622 125.272C106.314 123.128 104.2 122.602 95.7046 121.551C91.5586 121.066 85.7867 119.407 82.4943 117.79C80.9903 117.062 80.6245 116.617 80.34 115.363C79.8928 113.503 80.0554 113.3 81.5594 114.028C82.1691 114.352 84.2827 115.039 86.2745 115.525C89.4043 116.334 90.014 116.415 91.5586 115.929C95.1356 114.878 96.7208 112.815 96.7208 109.256C96.7208 106.91 97.1273 106.142 98.9564 105.05C100.054 104.403 100.379 103.958 100.379 103.027C100.379 102.057 100.664 101.693 101.924 101.086C103.265 100.439 103.428 100.196 103.55 98.5381C103.631 97.5675 103.875 96.5159 104.078 96.2733C104.281 95.9902 105.745 95.707 107.289 95.6262C112.207 95.343 113.549 93.4826 111.557 89.6809C110.947 88.5484 110.297 87.0115 110.094 86.2835C109.931 85.596 109.403 83.5738 108.915 81.8751C108.102 78.9631 108.102 78.68 108.712 77.7498C109.078 77.1836 109.972 76.6174 110.663 76.4556C112.37 76.0916 112.777 75.8489 112.167 75.4849C111.76 75.2423 111.842 74.8783 112.492 73.9885C112.98 73.3009 113.752 71.3192 114.199 69.5801C115.906 63.0685 115.906 63.0281 116.272 64.1605C116.435 64.7267 116.557 67.0321 116.597 69.3374C116.638 73.7458 117.166 75.7276 118.792 77.4262C119.971 78.7205 121.638 79.5293 122.979 79.5293H124.076L122.735 78.5991C121.963 78.1138 120.947 76.9005 120.378 75.8894C119.483 74.1907 119.443 73.8267 119.727 70.6316C120.825 59.6308 119.199 52.9575 114.037 47.2548C112.777 45.8797 111.76 44.4237 111.76 44.1002C111.76 42.9677 108.956 38.1144 107.045 35.9709L105.216 33.8678L105.745 32.1691C106.029 31.1985 106.923 29.7425 107.736 28.8931C108.996 27.5585 109.443 27.3563 110.988 27.3563C115.906 27.3563 121.719 33.0589 126.759 42.9273C128.629 46.5673 128.751 47.2953 127.653 48.0637C124.158 50.4904 124.483 57.0019 128.222 59.3072C134.076 62.9068 141.067 56.9614 138.425 50.6926C137.775 49.0344 135.62 47.2144 134.035 46.8908C132.734 46.6482 132.084 45.7179 132.084 44.1811C132.084 41.6331 129.767 32.1287 128.182 28.1651C127.206 25.698 124.524 20.6425 123.02 18.499C121.19 15.8701 117.166 11.947 114.24 10.0057C105.419 4.06036 95.8266 3.53459 85.7867 8.42834C82.413 10.0866 76.3972 13.8479 76.3972 14.2928C76.3972 14.4545 77.0882 15.4657 77.9418 16.5981C79.6083 18.8225 81.2748 21.4514 81.2748 21.8154C81.2748 21.9367 80.4212 21.1278 79.3644 19.955C71.1537 11.0572 64.894 5.71858 59.4472 2.92793C55.4638 0.946152 52.4559 0.218155 47.5376 0.0563812C44.9768 -0.0245056 42.4973 -0.0245056 42.0502 0.0968323ZM112.207 55.2628C111.557 58.4579 110.419 60.6014 107.777 63.3112L105.623 65.5761L107.533 62.9472C109.809 59.7521 111.232 56.7188 111.964 53.4832C112.451 51.2588 112.695 52.8361 112.207 55.2628ZM101.436 57.8108C99.8913 60.925 96.8021 63.8774 93.6723 65.3739C93.0219 65.6974 92.3309 66.021 92.1683 66.1019C91.2741 66.5063 92.087 65.7783 93.7942 64.565C96.6802 62.5428 99.3222 59.5499 100.867 56.6379C101.842 54.6966 102.249 54.2517 102.33 54.8988C102.411 55.3437 102.005 56.6783 101.436 57.8108ZM90.7863 55.3437C89.9734 56.7997 88.8759 58.1343 88.7133 57.9321C88.5914 57.8512 88.9978 57.0828 89.6075 56.3143C90.705 54.8988 91.3554 54.3326 90.7863 55.3437ZM82.5756 59.0646C81.2748 61.9765 77.454 66.9916 76.5191 66.9916C76.2752 66.9916 76.641 66.5467 78.4702 64.4841C78.836 64.0796 80.0148 62.2192 81.1123 60.3588C82.2097 58.4983 83.1853 57.0019 83.2259 57.0828C83.3072 57.1637 83.0227 58.0534 82.5756 59.0646ZM50.1796 63.0281C49.8138 64.6863 48.3099 67.6792 47.2124 68.8925C45.871 70.4698 45.9117 69.9036 47.3343 67.5578C48.1066 66.3041 49.0415 64.4841 49.448 63.5134C50.3016 61.4103 50.5455 61.2485 50.1796 63.0281ZM70.9504 64.9694C69.8936 66.1019 68.4709 68.1645 67.8612 69.5396C66.5605 72.3303 66.3166 72.2089 67.2515 69.1756C67.9019 67.0321 69.4465 64.9694 71.3569 63.7156C73.1047 62.5832 73.0641 62.745 70.9504 64.9694ZM53.025 68.2858C49.8138 71.8449 46.7246 77.588 46.7246 80.0147C46.7246 80.4191 46.562 80.7427 46.3182 80.7427C45.9117 80.7427 46.0336 79.6507 46.8059 76.1725C47.375 73.5436 50.0171 69.7014 52.7811 67.5578C54.0411 66.5872 55.1386 65.7783 55.1793 65.7783C55.2606 65.7783 54.285 66.9107 53.025 68.2858ZM32.1729 75.9703C31.0348 77.3454 29.6528 79.4485 29.165 80.6213C28.6366 81.7942 28.1082 82.7649 27.9456 82.7649C27.3765 82.7649 27.5797 79.1249 28.1895 77.9925C29.2056 76.0916 33.4736 72.6943 34.0833 73.3009C34.1646 73.3818 33.311 74.5547 32.1729 75.9703ZM79.8522 79.8125C79.7302 80.5809 79.4864 81.1471 79.3644 81.0258C79.2425 80.9044 79.2831 80.0147 79.4457 79.044C79.6489 78.0733 79.8522 77.5476 79.9335 77.8307C80.0554 78.1138 80.0148 79.0036 79.8522 79.8125ZM85.868 77.952C86.3558 78.2351 87.9816 79.5698 89.4856 80.9853C91.1521 82.6031 92.6561 83.6951 93.4284 83.8164C94.8104 84.0995 94.9323 84.3422 94.2007 85.1511C93.7129 85.6364 94.6072 85.2724 100.013 82.8053C102.371 81.7538 104.444 81.5516 104.85 82.3604C105.054 82.684 105.785 84.4231 106.476 86.2026C107.208 87.9822 107.98 89.964 108.224 90.5706C108.834 92.0266 108.102 92.5524 106.07 92.1884C105.297 92.0671 103.55 91.9053 102.208 91.9053C100.095 91.8648 99.7287 91.7435 99.3222 90.9346C98.9158 90.1257 98.8345 90.0853 98.5906 90.6515C98.1028 91.9457 98.3467 93.2399 99.2816 93.9679C99.8507 94.4128 100.176 95.1813 100.216 95.9902C100.257 97.2035 100.176 97.2844 98.428 97.527C94.8917 98.0528 91.0302 97.0417 88.632 94.9386C86.8435 93.3613 85.3802 94.6959 86.6809 96.6777C87.4532 97.8102 92.778 101.005 94.4852 101.369C95.4201 101.531 95.7453 101.855 95.8266 102.704C95.9485 103.755 95.8672 103.796 93.9975 103.877C92.9406 103.877 91.8025 103.917 91.5586 103.917C90.8676 103.877 90.9083 104.403 91.5993 105.009C91.9244 105.252 92.4935 106.344 92.8593 107.436C93.4284 109.175 93.4284 109.539 92.9 110.833C91.8431 113.3 89.2417 113.664 85.5428 111.804C82.9007 110.429 78.3482 107.274 75.8688 105.009C73.6331 102.987 73.5925 102.906 74.1209 101.814C74.9745 100.196 75.9907 96.0306 75.9907 94.1297C75.9907 91.9862 76.9662 90.0853 79.8115 86.8498C81.5187 84.9084 82.4536 83.3311 83.3885 80.864C84.0795 79.0036 84.7299 77.5071 84.8112 77.5071C84.9331 77.5071 85.3802 77.7094 85.868 77.952ZM39.6114 82.5222C39.2455 83.3311 38.7984 85.5151 38.5952 87.3351C38.2293 90.2471 37.0912 94.3724 36.766 94.0084C36.5628 93.8062 37.3757 86.2835 37.7822 84.7871C38.2293 83.2502 39.7333 80.5405 40.0585 80.8236C40.1398 80.9449 39.9365 81.7133 39.6114 82.5222ZM56.8458 89.6404C56.8865 92.7546 55.098 97.3248 52.7404 99.9537C51.521 101.369 48.3099 103.796 47.7002 103.796C47.5376 103.796 48.5538 102.623 49.9358 101.167C52.9437 98.0933 54.8947 94.1297 55.667 89.6404C56.1954 86.5262 56.8052 86.5262 56.8458 89.6404ZM70.6659 95.5048C70.7065 99.0639 70.0968 99.6301 69.2839 96.7586C68.5929 94.4128 68.6742 92.6737 69.5684 90.4897C70.0155 89.4786 70.0562 89.4786 70.3407 91.2582C70.5033 92.2693 70.6659 94.1702 70.6659 95.5048ZM59.935 108.447C59.6098 109.418 58.9188 110.51 58.4311 110.914L57.5775 111.683L58.2278 110.429C59.1627 108.649 60.0976 105.778 60.2195 104.605C60.2602 104.039 60.3415 104.281 60.4228 105.171C60.5447 106.061 60.3008 107.517 59.935 108.447ZM67.4548 125.393C67.7799 125.514 67.2922 125.555 66.3979 125.434C64.4469 125.191 61.9267 123.978 60.0163 122.319C58.9188 121.349 59.2846 121.47 62.7803 123.169C65.0159 124.22 67.1296 125.231 67.4548 125.393ZM47.3343 130.408C46.4401 131.217 45.0581 132.39 44.2858 132.997C43.5135 133.603 42.1721 134.695 41.3185 135.383L39.7739 136.677L40.0178 135.504C40.1804 134.857 40.5869 133.522 40.9527 132.552C41.4811 131.055 41.6437 130.894 42.0502 131.419C42.4567 131.986 42.8631 131.905 45.5459 130.489C47.2124 129.599 48.6351 128.871 48.757 128.871C48.8789 128.871 48.2286 129.559 47.3343 130.408ZM93.2252 134.17C93.8349 135.059 94.282 136.192 94.2007 136.677C94.0381 137.607 93.7129 137.041 92.3309 133.603C91.6805 132.066 91.9651 132.228 93.2252 134.17ZM53.4721 137.567C53.1063 138.376 52.9437 139.225 53.0656 139.427C53.1875 139.63 52.7404 140.438 52.0494 141.247L50.7894 142.663L51.0332 141.005C51.2365 139.751 51.1552 139.185 50.7487 138.902C50.2609 138.578 50.2609 138.497 50.7894 138.295C51.1145 138.133 51.9681 137.486 52.6185 136.798C54.0818 135.302 54.3257 135.545 53.4721 137.567ZM68.6335 139.387C69.7717 141.166 70.6659 143.512 70.422 144.038C70.2594 144.523 69.7717 144.2 68.349 142.622L66.5199 140.56L65.585 141.45C64.3249 142.622 64.3656 142.056 65.6256 139.225C66.1947 137.971 66.6418 136.637 66.6418 136.232C66.6418 135.868 67.0076 136.273 67.4548 137.162C67.9019 138.052 68.4303 139.063 68.6335 139.387ZM87.9004 141.409C88.7946 142.42 90.4611 144.2 91.5993 145.413C94.2413 148.163 93.591 147.799 89.1198 143.997C85.8273 141.207 85.5428 141.045 85.2583 141.854C85.0957 142.299 85.055 142.865 85.177 143.067C85.2989 143.269 85.2583 144.24 85.0957 145.17C84.8518 146.748 84.8112 146.788 84.4453 145.858C84.2421 145.292 83.9982 143.027 83.8763 140.802L83.6324 136.758L84.9737 138.174C85.6647 138.942 87.0061 140.398 87.9004 141.409ZM78.8766 154.634C79.527 156.657 79.0799 156.657 77.9418 154.675C77.4133 153.704 76.6004 152.369 76.1939 151.722L75.4216 150.509L76.9256 151.884C77.7385 152.653 78.6328 153.906 78.8766 154.634ZM95.0136 155.645C95.5827 156.212 95.664 157.951 95.1356 158.76C94.851 159.245 94.6072 159.043 94.0381 157.91C93.1032 155.888 93.7536 154.392 95.0136 155.645Z"/>
</mask>
<path d="M42.0502 0.0968323C41.6031 0.177719 40.1398 0.501266 38.7984 0.743942C28.1895 2.76614 17.2553 12.1492 11.7273 23.8781C9.97946 27.6798 8.02839 33.342 7.25609 36.9011C6.76832 39.2873 6.68703 39.4086 5.34567 39.6513C3.63848 39.894 1.40288 41.5522 0.589933 43.1295C-0.101071 44.5046 -0.223013 47.4166 0.427344 49.0748C1.44353 51.7441 4.00431 53.3619 7.13415 53.3215C13.5564 53.281 16.4017 45.8393 11.6866 41.3904C9.77623 39.5704 9.77623 39.6918 12.9874 35.4451C16.7269 30.43 22.0924 25.4958 25.71 23.6354C29.8966 21.5323 34.2459 21.1278 37.0912 22.5434C40.5462 24.3229 45.0987 30.1065 45.0987 32.6949C45.0987 33.3016 44.6516 32.7758 43.8387 31.1176C43.1477 29.6616 41.9282 28.0034 40.9527 27.1945L39.2862 25.7789L36.2783 27.8416C34.6524 28.974 32.3761 30.9153 31.238 32.1287C27.783 35.89 27.0107 37.2247 23.0272 45.9606C19.5722 53.645 18.5967 55.2224 14.7352 59.7925C8.76004 66.9107 6.56509 71.036 6.15862 75.9703C5.99603 78.1947 6.15862 79.2058 6.89027 81.228C7.37803 82.6436 8.15033 84.2613 8.55681 84.868C10.0201 86.9306 11.3615 90.2471 11.3615 91.9053C11.3615 93.4826 11.2802 93.6039 10.1014 93.8466C9.36975 93.9679 8.19098 94.7364 7.45933 95.5453C6.23991 96.799 6.07732 97.2439 6.07732 99.0639C6.07732 101.652 7.05286 103.391 9.04457 104.322C15.1823 107.234 20.4258 99.2661 15.223 95.0195C13.8816 93.9275 13.841 93.7657 14.2068 92.4715C14.8165 90.4089 14.6945 85.596 14.0035 83.3311C13.15 80.5809 13.2312 76.86 14.1661 74.7974C14.6133 73.8671 15.6701 72.3303 16.5643 71.3596C17.4179 70.3889 18.2715 69.1756 18.4341 68.6094C18.556 68.0432 19.6535 66.8703 20.7916 65.9805L22.9053 64.3627L21.8485 66.2636C21.2388 67.3556 20.8729 68.205 20.9949 68.205C21.1575 68.205 22.2549 67.4365 23.4337 66.5063C26.6449 64.0796 29.1243 61.0059 30.3031 58.0534C32.2542 53.0384 32.1322 53.2001 32.6607 55.0606L33.1078 56.6379L35.9531 53.0384C39.5301 48.3873 39.5301 48.3468 39.0016 49.8028C38.7578 50.4499 38.5139 52.7957 38.4732 55.0606C38.3919 58.0534 38.148 59.5499 37.579 60.7228C36.197 63.6348 33.6362 67.113 30.1812 70.7125C26.1571 74.9996 25.1816 76.6982 25.1816 79.6911C25.1816 81.5516 25.3441 82.0369 26.401 83.1693C28.6772 85.596 27.7423 90.0449 24.5718 91.5413C23.4337 92.0671 22.9866 92.1075 22.133 91.7435C20.9542 91.2177 20.8729 91.3391 21.7672 92.6737C23.1492 94.7364 27.3359 94.9386 29.6121 93.0377C30.5876 92.2288 30.8315 92.1884 31.0348 92.6737C31.6038 94.2511 29.8153 98.4168 27.4985 100.884C26.1164 102.299 23.3524 103.796 22.0924 103.796C21.6859 103.796 20.7916 103.513 20.1413 103.189C18.5967 102.38 18.556 102.421 19.247 103.715C20.1006 105.333 21.0762 106.061 23.2305 106.587C26.1977 107.274 30.9535 106.02 33.433 103.877C34.3678 103.068 34.7337 103.472 34.124 104.686C32.3761 108.043 27.7017 110.51 26.0352 108.932C25.588 108.528 25.588 108.609 25.9539 109.377C26.8481 111.076 28.1895 111.602 31.2787 111.399C33.6768 111.278 34.3678 111.035 35.9937 109.943L37.8635 108.609L37.0099 109.822C35.1401 112.451 33.4736 113.341 22.946 117.345C12.6622 121.268 8.27227 124.867 7.45933 130.125C7.29674 131.015 7.01221 131.824 6.84962 131.945C6.23991 132.309 6.44315 134.453 7.13415 135.1C7.45933 135.464 8.19098 135.747 8.67875 135.747C10.4672 135.747 11.646 133.361 10.4672 132.188C9.69493 131.419 12.337 129.033 15.1417 127.901C16.8082 127.254 17.865 126.445 18.9625 125.11C20.1413 123.654 20.5478 123.371 20.6697 123.897C20.751 124.301 20.9949 124.867 21.1981 125.11C21.4827 125.474 21.442 125.919 20.9949 126.606C20.3445 127.577 20.3852 127.618 21.6046 128.022C22.6614 128.386 23.1898 128.305 25.3441 127.294C26.6855 126.647 28.474 125.959 29.2463 125.838C30.6283 125.595 30.5876 125.595 28.4333 127.051C25.3441 129.114 24.1654 130.287 22.1737 133.32C20.1413 136.354 18.5154 140.277 17.9463 143.35L17.5805 145.494L20.1006 143.067C21.7265 141.49 23.7589 140.115 25.71 139.185C27.7423 138.174 28.8805 137.365 29.2056 136.677C29.9373 135.059 30.1405 135.828 29.6934 138.416C29.4495 139.751 29.0431 142.097 28.7992 143.714C28.3927 146.343 28.2708 146.626 27.2546 146.99C25.2222 147.678 24.3686 149.013 24.3686 151.277C24.4093 155.403 28.3114 157.425 31.5225 154.958C33.6362 153.34 33.8394 150.226 31.929 148.163L31.0348 147.193L34.002 143.997L36.9693 140.802L38.6765 141.773C39.652 142.299 41.2779 143.472 42.3754 144.361C43.8793 145.575 44.4077 145.858 44.8549 145.494C45.6272 144.847 46.7246 145.373 46.7246 146.384C46.7246 146.829 47.375 147.759 48.1473 148.446L49.5293 149.7L49.6106 154.189L49.7325 158.719L48.5131 159.73C46.9685 161.065 46.8466 163.734 48.3099 164.907C49.5699 165.959 51.7649 165.918 52.7811 164.826C54.2037 163.289 54.2037 161.591 52.7404 159.569C52.3746 159.002 52.7811 158.274 55.1793 155.12C58.8375 150.347 61.1951 147.678 60.5041 149.093C60.2195 149.66 59.4879 150.792 58.8375 151.601C58.1872 152.45 57.74 153.3 57.9026 153.542C58.0246 153.745 59.0001 154.432 60.0569 155.039C65.9102 158.396 72.5763 163.209 76.7223 167.091C79.2018 169.437 81.3155 171.216 81.4374 171.014C81.6407 170.691 84.1202 162.481 84.1202 162.117C84.1202 162.036 84.9331 162.602 85.9086 163.411C86.8842 164.22 87.9004 164.867 88.1849 164.867C89.2417 164.867 96.5989 173.603 97.5744 176.11C97.7776 176.596 98.1028 177 98.3467 177C98.9158 177 102.411 169.639 103.793 165.635C106.232 158.355 106.232 152.976 103.834 147.152C103.021 145.211 102.249 143.35 102.127 143.067C101.964 142.663 102.33 142.784 103.102 143.35C103.793 143.836 104.444 144.24 104.566 144.24C104.891 144.24 110.947 150.469 110.947 150.792C110.947 150.994 111.151 151.116 111.354 151.116C112.289 151.116 111.435 146.02 109.891 142.218C108.549 138.821 105.907 134.857 103.062 131.783C101.639 130.246 101.802 130.206 104.972 131.338C106.964 132.026 107.452 132.107 107.736 131.662C108.021 131.217 108.224 131.298 108.712 131.986C109.078 132.511 109.728 132.916 110.175 132.916C111.72 132.916 114.28 133.967 116.11 135.342C118.63 137.243 119.036 137.931 118.142 138.902C117.166 139.953 117.248 142.056 118.223 142.622C120.703 143.917 122.979 141.45 121.353 139.185C121.069 138.74 120.662 137.81 120.54 137.082C119.605 132.835 115.175 127.537 110.622 125.272C106.314 123.128 104.2 122.602 95.7046 121.551C91.5586 121.066 85.7867 119.407 82.4943 117.79C80.9903 117.062 80.6245 116.617 80.34 115.363C79.8928 113.503 80.0554 113.3 81.5594 114.028C82.1691 114.352 84.2827 115.039 86.2745 115.525C89.4043 116.334 90.014 116.415 91.5586 115.929C95.1356 114.878 96.7208 112.815 96.7208 109.256C96.7208 106.91 97.1273 106.142 98.9564 105.05C100.054 104.403 100.379 103.958 100.379 103.027C100.379 102.057 100.664 101.693 101.924 101.086C103.265 100.439 103.428 100.196 103.55 98.5381C103.631 97.5675 103.875 96.5159 104.078 96.2733C104.281 95.9902 105.745 95.707 107.289 95.6262C112.207 95.343 113.549 93.4826 111.557 89.6809C110.947 88.5484 110.297 87.0115 110.094 86.2835C109.931 85.596 109.403 83.5738 108.915 81.8751C108.102 78.9631 108.102 78.68 108.712 77.7498C109.078 77.1836 109.972 76.6174 110.663 76.4556C112.37 76.0916 112.777 75.8489 112.167 75.4849C111.76 75.2423 111.842 74.8783 112.492 73.9885C112.98 73.3009 113.752 71.3192 114.199 69.5801C115.906 63.0685 115.906 63.0281 116.272 64.1605C116.435 64.7267 116.557 67.0321 116.597 69.3374C116.638 73.7458 117.166 75.7276 118.792 77.4262C119.971 78.7205 121.638 79.5293 122.979 79.5293H124.076L122.735 78.5991C121.963 78.1138 120.947 76.9005 120.378 75.8894C119.483 74.1907 119.443 73.8267 119.727 70.6316C120.825 59.6308 119.199 52.9575 114.037 47.2548C112.777 45.8797 111.76 44.4237 111.76 44.1002C111.76 42.9677 108.956 38.1144 107.045 35.9709L105.216 33.8678L105.745 32.1691C106.029 31.1985 106.923 29.7425 107.736 28.8931C108.996 27.5585 109.443 27.3563 110.988 27.3563C115.906 27.3563 121.719 33.0589 126.759 42.9273C128.629 46.5673 128.751 47.2953 127.653 48.0637C124.158 50.4904 124.483 57.0019 128.222 59.3072C134.076 62.9068 141.067 56.9614 138.425 50.6926C137.775 49.0344 135.62 47.2144 134.035 46.8908C132.734 46.6482 132.084 45.7179 132.084 44.1811C132.084 41.6331 129.767 32.1287 128.182 28.1651C127.206 25.698 124.524 20.6425 123.02 18.499C121.19 15.8701 117.166 11.947 114.24 10.0057C105.419 4.06036 95.8266 3.53459 85.7867 8.42834C82.413 10.0866 76.3972 13.8479 76.3972 14.2928C76.3972 14.4545 77.0882 15.4657 77.9418 16.5981C79.6083 18.8225 81.2748 21.4514 81.2748 21.8154C81.2748 21.9367 80.4212 21.1278 79.3644 19.955C71.1537 11.0572 64.894 5.71858 59.4472 2.92793C55.4638 0.946152 52.4559 0.218155 47.5376 0.0563812C44.9768 -0.0245056 42.4973 -0.0245056 42.0502 0.0968323ZM112.207 55.2628C111.557 58.4579 110.419 60.6014 107.777 63.3112L105.623 65.5761L107.533 62.9472C109.809 59.7521 111.232 56.7188 111.964 53.4832C112.451 51.2588 112.695 52.8361 112.207 55.2628ZM101.436 57.8108C99.8913 60.925 96.8021 63.8774 93.6723 65.3739C93.0219 65.6974 92.3309 66.021 92.1683 66.1019C91.2741 66.5063 92.087 65.7783 93.7942 64.565C96.6802 62.5428 99.3222 59.5499 100.867 56.6379C101.842 54.6966 102.249 54.2517 102.33 54.8988C102.411 55.3437 102.005 56.6783 101.436 57.8108ZM90.7863 55.3437C89.9734 56.7997 88.8759 58.1343 88.7133 57.9321C88.5914 57.8512 88.9978 57.0828 89.6075 56.3143C90.705 54.8988 91.3554 54.3326 90.7863 55.3437ZM82.5756 59.0646C81.2748 61.9765 77.454 66.9916 76.5191 66.9916C76.2752 66.9916 76.641 66.5467 78.4702 64.4841C78.836 64.0796 80.0148 62.2192 81.1123 60.3588C82.2097 58.4983 83.1853 57.0019 83.2259 57.0828C83.3072 57.1637 83.0227 58.0534 82.5756 59.0646ZM50.1796 63.0281C49.8138 64.6863 48.3099 67.6792 47.2124 68.8925C45.871 70.4698 45.9117 69.9036 47.3343 67.5578C48.1066 66.3041 49.0415 64.4841 49.448 63.5134C50.3016 61.4103 50.5455 61.2485 50.1796 63.0281ZM70.9504 64.9694C69.8936 66.1019 68.4709 68.1645 67.8612 69.5396C66.5605 72.3303 66.3166 72.2089 67.2515 69.1756C67.9019 67.0321 69.4465 64.9694 71.3569 63.7156C73.1047 62.5832 73.0641 62.745 70.9504 64.9694ZM53.025 68.2858C49.8138 71.8449 46.7246 77.588 46.7246 80.0147C46.7246 80.4191 46.562 80.7427 46.3182 80.7427C45.9117 80.7427 46.0336 79.6507 46.8059 76.1725C47.375 73.5436 50.0171 69.7014 52.7811 67.5578C54.0411 66.5872 55.1386 65.7783 55.1793 65.7783C55.2606 65.7783 54.285 66.9107 53.025 68.2858ZM32.1729 75.9703C31.0348 77.3454 29.6528 79.4485 29.165 80.6213C28.6366 81.7942 28.1082 82.7649 27.9456 82.7649C27.3765 82.7649 27.5797 79.1249 28.1895 77.9925C29.2056 76.0916 33.4736 72.6943 34.0833 73.3009C34.1646 73.3818 33.311 74.5547 32.1729 75.9703ZM79.8522 79.8125C79.7302 80.5809 79.4864 81.1471 79.3644 81.0258C79.2425 80.9044 79.2831 80.0147 79.4457 79.044C79.6489 78.0733 79.8522 77.5476 79.9335 77.8307C80.0554 78.1138 80.0148 79.0036 79.8522 79.8125ZM85.868 77.952C86.3558 78.2351 87.9816 79.5698 89.4856 80.9853C91.1521 82.6031 92.6561 83.6951 93.4284 83.8164C94.8104 84.0995 94.9323 84.3422 94.2007 85.1511C93.7129 85.6364 94.6072 85.2724 100.013 82.8053C102.371 81.7538 104.444 81.5516 104.85 82.3604C105.054 82.684 105.785 84.4231 106.476 86.2026C107.208 87.9822 107.98 89.964 108.224 90.5706C108.834 92.0266 108.102 92.5524 106.07 92.1884C105.297 92.0671 103.55 91.9053 102.208 91.9053C100.095 91.8648 99.7287 91.7435 99.3222 90.9346C98.9158 90.1257 98.8345 90.0853 98.5906 90.6515C98.1028 91.9457 98.3467 93.2399 99.2816 93.9679C99.8507 94.4128 100.176 95.1813 100.216 95.9902C100.257 97.2035 100.176 97.2844 98.428 97.527C94.8917 98.0528 91.0302 97.0417 88.632 94.9386C86.8435 93.3613 85.3802 94.6959 86.6809 96.6777C87.4532 97.8102 92.778 101.005 94.4852 101.369C95.4201 101.531 95.7453 101.855 95.8266 102.704C95.9485 103.755 95.8672 103.796 93.9975 103.877C92.9406 103.877 91.8025 103.917 91.5586 103.917C90.8676 103.877 90.9083 104.403 91.5993 105.009C91.9244 105.252 92.4935 106.344 92.8593 107.436C93.4284 109.175 93.4284 109.539 92.9 110.833C91.8431 113.3 89.2417 113.664 85.5428 111.804C82.9007 110.429 78.3482 107.274 75.8688 105.009C73.6331 102.987 73.5925 102.906 74.1209 101.814C74.9745 100.196 75.9907 96.0306 75.9907 94.1297C75.9907 91.9862 76.9662 90.0853 79.8115 86.8498C81.5187 84.9084 82.4536 83.3311 83.3885 80.864C84.0795 79.0036 84.7299 77.5071 84.8112 77.5071C84.9331 77.5071 85.3802 77.7094 85.868 77.952ZM39.6114 82.5222C39.2455 83.3311 38.7984 85.5151 38.5952 87.3351C38.2293 90.2471 37.0912 94.3724 36.766 94.0084C36.5628 93.8062 37.3757 86.2835 37.7822 84.7871C38.2293 83.2502 39.7333 80.5405 40.0585 80.8236C40.1398 80.9449 39.9365 81.7133 39.6114 82.5222ZM56.8458 89.6404C56.8865 92.7546 55.098 97.3248 52.7404 99.9537C51.521 101.369 48.3099 103.796 47.7002 103.796C47.5376 103.796 48.5538 102.623 49.9358 101.167C52.9437 98.0933 54.8947 94.1297 55.667 89.6404C56.1954 86.5262 56.8052 86.5262 56.8458 89.6404ZM70.6659 95.5048C70.7065 99.0639 70.0968 99.6301 69.2839 96.7586C68.5929 94.4128 68.6742 92.6737 69.5684 90.4897C70.0155 89.4786 70.0562 89.4786 70.3407 91.2582C70.5033 92.2693 70.6659 94.1702 70.6659 95.5048ZM59.935 108.447C59.6098 109.418 58.9188 110.51 58.4311 110.914L57.5775 111.683L58.2278 110.429C59.1627 108.649 60.0976 105.778 60.2195 104.605C60.2602 104.039 60.3415 104.281 60.4228 105.171C60.5447 106.061 60.3008 107.517 59.935 108.447ZM67.4548 125.393C67.7799 125.514 67.2922 125.555 66.3979 125.434C64.4469 125.191 61.9267 123.978 60.0163 122.319C58.9188 121.349 59.2846 121.47 62.7803 123.169C65.0159 124.22 67.1296 125.231 67.4548 125.393ZM47.3343 130.408C46.4401 131.217 45.0581 132.39 44.2858 132.997C43.5135 133.603 42.1721 134.695 41.3185 135.383L39.7739 136.677L40.0178 135.504C40.1804 134.857 40.5869 133.522 40.9527 132.552C41.4811 131.055 41.6437 130.894 42.0502 131.419C42.4567 131.986 42.8631 131.905 45.5459 130.489C47.2124 129.599 48.6351 128.871 48.757 128.871C48.8789 128.871 48.2286 129.559 47.3343 130.408ZM93.2252 134.17C93.8349 135.059 94.282 136.192 94.2007 136.677C94.0381 137.607 93.7129 137.041 92.3309 133.603C91.6805 132.066 91.9651 132.228 93.2252 134.17ZM53.4721 137.567C53.1063 138.376 52.9437 139.225 53.0656 139.427C53.1875 139.63 52.7404 140.438 52.0494 141.247L50.7894 142.663L51.0332 141.005C51.2365 139.751 51.1552 139.185 50.7487 138.902C50.2609 138.578 50.2609 138.497 50.7894 138.295C51.1145 138.133 51.9681 137.486 52.6185 136.798C54.0818 135.302 54.3257 135.545 53.4721 137.567ZM68.6335 139.387C69.7717 141.166 70.6659 143.512 70.422 144.038C70.2594 144.523 69.7717 144.2 68.349 142.622L66.5199 140.56L65.585 141.45C64.3249 142.622 64.3656 142.056 65.6256 139.225C66.1947 137.971 66.6418 136.637 66.6418 136.232C66.6418 135.868 67.0076 136.273 67.4548 137.162C67.9019 138.052 68.4303 139.063 68.6335 139.387ZM87.9004 141.409C88.7946 142.42 90.4611 144.2 91.5993 145.413C94.2413 148.163 93.591 147.799 89.1198 143.997C85.8273 141.207 85.5428 141.045 85.2583 141.854C85.0957 142.299 85.055 142.865 85.177 143.067C85.2989 143.269 85.2583 144.24 85.0957 145.17C84.8518 146.748 84.8112 146.788 84.4453 145.858C84.2421 145.292 83.9982 143.027 83.8763 140.802L83.6324 136.758L84.9737 138.174C85.6647 138.942 87.0061 140.398 87.9004 141.409ZM78.8766 154.634C79.527 156.657 79.0799 156.657 77.9418 154.675C77.4133 153.704 76.6004 152.369 76.1939 151.722L75.4216 150.509L76.9256 151.884C77.7385 152.653 78.6328 153.906 78.8766 154.634ZM95.0136 155.645C95.5827 156.212 95.664 157.951 95.1356 158.76C94.851 159.245 94.6072 159.043 94.0381 157.91C93.1032 155.888 93.7536 154.392 95.0136 155.645Z" fill="currentColor" stroke="white" stroke-width="0.266667" mask="url(#path-4-inside-1_3929_431)"/>
<line x1="161" y1="87.5" x2="374" y2="87.5" stroke="currentColor" stroke-width="3"/>
</svg>
