<svg width="21" height="21" viewBox="0 0 21 21" fill="none" xmlns="http://www.w3.org/2000/svg">
<path d="M10.5 0C8.4233 0 6.39323 0.615814 4.66652 1.76957C2.9398 2.92332 1.59399 4.5632 0.799269 6.48182C0.0045495 8.40045 -0.203386 10.5116 0.201759 12.5484C0.606904 14.5852 1.60693 16.4562 3.07538 17.9246C4.54383 19.3931 6.41475 20.3931 8.45155 20.7982C10.4884 21.2034 12.5996 20.9955 14.5182 20.2007C16.4368 19.406 18.0767 18.0602 19.2304 16.3335C20.3842 14.6068 21 12.5767 21 10.5C20.9968 7.71619 19.8896 5.04731 17.9211 3.07886C15.9527 1.11041 13.2838 0.00315052 10.5 0ZM13.3899 14.6048C13.2939 14.7963 13.1258 14.9418 12.9225 15.0093C12.7192 15.0768 12.4975 15.0609 12.306 14.9649C11.744 14.6838 11.1241 14.5378 10.4957 14.5385C9.86728 14.5392 9.24773 14.6866 8.68634 14.9689C8.59163 15.0167 8.48844 15.0453 8.38267 15.0531C8.2769 15.061 8.17061 15.0479 8.06989 15.0147C7.96916 14.9815 7.87596 14.9288 7.79561 14.8595C7.71526 14.7903 7.64933 14.7059 7.6016 14.6112C7.55386 14.5165 7.52524 14.4133 7.51738 14.3075C7.50952 14.2018 7.52257 14.0955 7.55579 13.9948C7.62287 13.7913 7.76802 13.6229 7.9593 13.5265C8.74563 13.1307 9.61356 12.9241 10.4939 12.9231C11.3742 12.9221 12.2426 13.1268 13.0298 13.5209C13.2213 13.6168 13.3668 13.785 13.4344 13.9883C13.5019 14.1915 13.4859 14.4133 13.3899 14.6048ZM14.8839 11.7469C14.7865 11.9377 14.6173 12.082 14.4136 12.1481C14.2098 12.2142 13.9881 12.1966 13.7973 12.0993C12.7746 11.5782 11.643 11.307 10.4953 11.3077C9.34747 11.3084 8.21621 11.5812 7.1942 12.1036C7.09977 12.1521 6.9967 12.1815 6.89088 12.1901C6.78507 12.1988 6.67859 12.1865 6.57754 12.1539C6.47648 12.1214 6.38284 12.0692 6.30196 12.0005C6.22107 11.9317 6.15455 11.8477 6.10617 11.7531C6.0578 11.6586 6.02853 11.5555 6.02005 11.4497C6.01156 11.3439 6.02402 11.2374 6.05672 11.1364C6.08941 11.0354 6.1417 10.9418 6.21059 10.8611C6.27948 10.7803 6.36362 10.7139 6.45819 10.6656C7.70771 10.0268 9.09088 9.69322 10.4942 9.69231C11.8976 9.6914 13.2812 10.0232 14.5316 10.6604C14.626 10.7086 14.7101 10.775 14.7789 10.8557C14.8478 10.9363 14.9 11.0298 14.9328 11.1307C14.9655 11.2316 14.978 11.3379 14.9696 11.4437C14.9612 11.5494 14.9321 11.6525 14.8839 11.7469ZM16.3808 8.88323C16.2829 9.07375 16.1133 9.21756 15.9093 9.28304C15.7053 9.34851 15.4837 9.33028 15.2932 9.23236C13.8081 8.47218 12.1635 8.07613 10.4952 8.07692C8.82682 8.07771 7.18259 8.47531 5.69822 9.23689C5.60391 9.28566 5.50092 9.31535 5.39513 9.32428C5.28935 9.33321 5.18283 9.32119 5.08169 9.28892C4.98055 9.25665 4.88677 9.20476 4.8057 9.13621C4.72463 9.06766 4.65787 8.9838 4.60924 8.88943C4.56061 8.79506 4.53106 8.69203 4.52229 8.58622C4.51351 8.48042 4.52568 8.37393 4.55809 8.27283C4.59051 8.17174 4.64254 8.07803 4.7112 7.99706C4.77986 7.91609 4.86382 7.84945 4.95826 7.80095C6.67123 6.92158 8.56887 6.46246 10.4944 6.46154C12.4199 6.46061 14.318 6.91791 16.0318 7.79563C16.1261 7.84412 16.21 7.91072 16.2786 7.99162C16.3472 8.07253 16.3991 8.16615 16.4316 8.26714C16.464 8.36813 16.4762 8.47452 16.4675 8.58023C16.4588 8.68594 16.4293 8.7889 16.3808 8.88323Z" fill="currentColor"/>
</svg>
